<svg class="animated" id="freepik_stories-self-driving-car" xmlns="http://www.w3.org/2000/svg" viewBox="0 0 750 500" version="1.1" xmlns:xlink="http://www.w3.org/1999/xlink" xmlns:svgjs="http://svgjs.com/svgjs"><style>svg#freepik_stories-self-driving-car:not(.animated) .animable {opacity: 0;}svg#freepik_stories-self-driving-car.animated #freepik--background-complete--inject-69 {animation: 3s Infinite  linear floating;animation-delay: 1s;}svg#freepik_stories-self-driving-car.animated #freepik--Car--inject-69 {animation: 3s Infinite  linear floating;animation-delay: 0s;}            @keyframes floating {                0% {                    opacity: 1;                    transform: translateY(0px);                }                50% {                    transform: translateY(-10px);                }                100% {                    opacity: 1;                    transform: translateY(0px);                }            }        </style><g id="freepik--background-complete--inject-69" class="animable animator-active" style="transform-origin: 376.53px 239.225px;"><rect x="318.72" y="127.23" width="58.81" height="186.37" style="fill: rgb(245, 245, 245); transform-origin: 348.125px 220.415px;" id="el3xsirah4qr6" class="animable"></rect><rect x="348.12" y="127.23" width="29.4" height="185.86" style="fill: rgb(235, 235, 235); transform-origin: 362.82px 220.16px;" id="el5cqfgnkfsu2" class="animable"></rect><rect x="325.43" y="108.94" width="20.77" height="18.3" style="fill: rgb(245, 245, 245); transform-origin: 335.815px 118.09px;" id="elxkvdlwajlfe" class="animable"></rect><rect x="341.25" y="108.94" width="4.95" height="18.3" style="fill: rgb(235, 235, 235); transform-origin: 343.725px 118.09px;" id="el9n2t8rop54c" class="animable"></rect><polyline points="313.82 127.23 313.82 126.17 379.25 126.17 379.25 127.23" style="fill: rgb(224, 224, 224); transform-origin: 346.535px 126.7px;" id="elbzlla3z7pmi" class="animable"></polyline><rect x="330.33" y="135.21" width="4.98" height="10.5" style="fill: rgb(250, 250, 250); transform-origin: 332.82px 140.46px;" id="el0wv624y0u55" class="animable"></rect><path d="M348.12,149.83c0,.11-6.58.2-14.7.2s-14.7-.09-14.7-.2,6.58-.2,14.7-.2S348.12,149.72,348.12,149.83Z" style="fill: rgb(224, 224, 224); transform-origin: 333.42px 149.83px;" id="els2o7n7sdrir" class="animable"></path><rect x="359.99" y="135.21" width="4.98" height="10.5" style="fill: rgb(224, 224, 224); transform-origin: 362.48px 140.46px;" id="elwhidqjfjqg" class="animable"></rect><path d="M377.78,149.83c0,.11-6.58.2-14.7.2s-14.7-.09-14.7-.2,6.58-.2,14.7-.2S377.78,149.72,377.78,149.83Z" style="fill: rgb(224, 224, 224); transform-origin: 363.08px 149.83px;" id="elbb9glg3978" class="animable"></path><rect x="359.99" y="156.05" width="4.98" height="10.5" style="fill: rgb(224, 224, 224); transform-origin: 362.48px 161.3px;" id="elv6tbqegouba" class="animable"></rect><path d="M377.78,170.67c0,.11-6.58.2-14.7.2s-14.7-.09-14.7-.2,6.58-.2,14.7-.2S377.78,170.56,377.78,170.67Z" style="fill: rgb(224, 224, 224); transform-origin: 363.08px 170.67px;" id="el0fpanx5slh7" class="animable"></path><rect x="359.99" y="177.52" width="4.98" height="10.5" style="fill: rgb(224, 224, 224); transform-origin: 362.48px 182.77px;" id="elagczuq9fid6" class="animable"></rect><path d="M377.78,192.13c0,.11-6.58.2-14.7.2s-14.7-.09-14.7-.2,6.58-.2,14.7-.2S377.78,192,377.78,192.13Z" style="fill: rgb(224, 224, 224); transform-origin: 363.08px 192.13px;" id="elqd9syul6m3c" class="animable"></path><rect x="359.99" y="198.98" width="4.98" height="10.5" style="fill: rgb(224, 224, 224); transform-origin: 362.48px 204.23px;" id="elrie4bnq6i4j" class="animable"></rect><path d="M377.78,213.6c0,.11-6.58.2-14.7.2s-14.7-.09-14.7-.2,6.58-.2,14.7-.2S377.78,213.49,377.78,213.6Z" style="fill: rgb(224, 224, 224); transform-origin: 363.08px 213.6px;" id="elxwveagiurap" class="animable"></path><rect x="359.99" y="219.84" width="4.98" height="10.5" style="fill: rgb(224, 224, 224); transform-origin: 362.48px 225.09px;" id="elp7zjxkr8gu" class="animable"></rect><path d="M377.78,234.45c0,.11-6.58.2-14.7.2s-14.7-.09-14.7-.2,6.58-.2,14.7-.2S377.78,234.34,377.78,234.45Z" style="fill: rgb(224, 224, 224); transform-origin: 363.08px 234.45px;" id="elzqad5feio8" class="animable"></path><rect x="359.99" y="240.77" width="4.98" height="10.5" style="fill: rgb(224, 224, 224); transform-origin: 362.48px 246.02px;" id="ely2kyvo1ii1" class="animable"></rect><rect x="359.99" y="261.99" width="4.98" height="10.5" style="fill: rgb(224, 224, 224); transform-origin: 362.48px 267.24px;" id="eld94mhvl3rpp" class="animable"></rect><path d="M377.78,255.39c0,.11-6.58.2-14.7.2s-14.7-.09-14.7-.2,6.58-.2,14.7-.2S377.78,255.28,377.78,255.39Z" style="fill: rgb(224, 224, 224); transform-origin: 363.08px 255.39px;" id="el62nibeun9bm" class="animable"></path><rect x="330.33" y="156.37" width="4.98" height="10.5" style="fill: rgb(250, 250, 250); transform-origin: 332.82px 161.62px;" id="el3oldawclpr7" class="animable"></rect><path d="M348.12,171c0,.11-6.58.2-14.7.2s-14.7-.09-14.7-.2,6.58-.2,14.7-.2S348.12,170.87,348.12,171Z" style="fill: rgb(224, 224, 224); transform-origin: 333.42px 171px;" id="elhew47d0tz5g" class="animable"></path><rect x="330.33" y="177.52" width="4.98" height="10.5" style="fill: rgb(250, 250, 250); transform-origin: 332.82px 182.77px;" id="el5j90wlra3vg" class="animable"></rect><path d="M348.12,192.14c0,.11-6.58.2-14.7.2s-14.7-.09-14.7-.2,6.58-.2,14.7-.2S348.12,192,348.12,192.14Z" style="fill: rgb(224, 224, 224); transform-origin: 333.42px 192.14px;" id="elcwrvdnm5crf" class="animable"></path><rect x="330.33" y="198.68" width="4.98" height="10.5" style="fill: rgb(250, 250, 250); transform-origin: 332.82px 203.93px;" id="elcim1whqd4af" class="animable"></rect><path d="M348.12,213.3c0,.11-6.58.2-14.7.2s-14.7-.09-14.7-.2,6.58-.2,14.7-.2S348.12,213.19,348.12,213.3Z" style="fill: rgb(224, 224, 224); transform-origin: 333.42px 213.3px;" id="elrr6ihj80nn" class="animable"></path><rect x="330.33" y="219.84" width="4.98" height="10.5" style="fill: rgb(250, 250, 250); transform-origin: 332.82px 225.09px;" id="elqrblqpxoyrg" class="animable"></rect><path d="M348.12,234.45c0,.11-6.58.2-14.7.2s-14.7-.09-14.7-.2,6.58-.2,14.7-.2S348.12,234.34,348.12,234.45Z" style="fill: rgb(224, 224, 224); transform-origin: 333.42px 234.45px;" id="el8ue929l3bo" class="animable"></path><rect x="330.33" y="240.99" width="4.98" height="10.5" style="fill: rgb(250, 250, 250); transform-origin: 332.82px 246.24px;" id="elfl1co5f8cd6" class="animable"></rect><path d="M348.12,255.61c0,.11-6.58.2-14.7.2s-14.7-.09-14.7-.2,6.58-.2,14.7-.2S348.12,255.5,348.12,255.61Z" style="fill: rgb(224, 224, 224); transform-origin: 333.42px 255.61px;" id="el16bfixgxwvq" class="animable"></path><rect x="330.33" y="262.15" width="4.98" height="10.5" style="fill: rgb(250, 250, 250); transform-origin: 332.82px 267.4px;" id="ely2rbpdfbgsa" class="animable"></rect><rect x="277.04" y="179.69" width="42.25" height="133.91" style="fill: rgb(245, 245, 245); transform-origin: 298.165px 246.645px;" id="elwe3x5n21qdh" class="animable"></rect><rect x="298.16" y="179.69" width="21.13" height="133.54" style="fill: rgb(235, 235, 235); transform-origin: 308.725px 246.46px;" id="elx89r0m30lr8" class="animable"></rect><rect x="281.86" y="166.55" width="14.92" height="13.15" style="fill: rgb(245, 245, 245); transform-origin: 289.32px 173.125px;" id="elyy22xf5qls" class="animable"></rect><rect x="293.23" y="166.55" width="3.56" height="13.15" style="fill: rgb(235, 235, 235); transform-origin: 295.01px 173.125px;" id="el1499gkiecdhf" class="animable"></rect><polyline points="273.52 179.69 273.52 178.93 320.53 178.93 320.53 179.69" style="fill: rgb(224, 224, 224); transform-origin: 297.025px 179.31px;" id="elnhtq1b6qe4" class="animable"></polyline><rect x="285.38" y="185.43" width="3.58" height="7.54" style="fill: rgb(250, 250, 250); transform-origin: 287.17px 189.2px;" id="elgtytq7f7erg" class="animable"></rect><path d="M298.16,195.93c0,.08-4.73.14-10.56.14S277,196,277,195.93s4.73-.15,10.56-.15S298.16,195.85,298.16,195.93Z" style="fill: rgb(224, 224, 224); transform-origin: 287.58px 195.925px;" id="el8j1h70qk4of" class="animable"></path><rect x="306.69" y="185.43" width="3.58" height="7.54" style="fill: rgb(224, 224, 224); transform-origin: 308.48px 189.2px;" id="eljbekn7lohti" class="animable"></rect><path d="M319.47,195.93c0,.08-4.73.14-10.56.14s-10.56-.06-10.56-.14,4.73-.15,10.56-.15S319.47,195.85,319.47,195.93Z" style="fill: rgb(224, 224, 224); transform-origin: 308.91px 195.925px;" id="elha95q8ffgi" class="animable"></path><rect x="306.69" y="200.4" width="3.58" height="7.54" style="fill: rgb(224, 224, 224); transform-origin: 308.48px 204.17px;" id="elrrtrinc3goq" class="animable"></rect><path d="M319.47,210.9c0,.08-4.73.14-10.56.14s-10.56-.06-10.56-.14,4.73-.14,10.56-.14S319.47,210.82,319.47,210.9Z" style="fill: rgb(224, 224, 224); transform-origin: 308.91px 210.9px;" id="elmolpoc89jn" class="animable"></path><rect x="306.69" y="215.82" width="3.58" height="7.54" style="fill: rgb(224, 224, 224); transform-origin: 308.48px 219.59px;" id="el7he1fs1kuhm" class="animable"></rect><path d="M319.47,226.32c0,.08-4.73.15-10.56.15s-10.56-.07-10.56-.15,4.73-.14,10.56-.14S319.47,226.24,319.47,226.32Z" style="fill: rgb(224, 224, 224); transform-origin: 308.91px 226.325px;" id="elkj06turcuoe" class="animable"></path><rect x="306.69" y="231.25" width="3.58" height="7.54" style="fill: rgb(224, 224, 224); transform-origin: 308.48px 235.02px;" id="elkeif3jsj0w" class="animable"></rect><path d="M319.47,241.75c0,.08-4.73.14-10.56.14s-10.56-.06-10.56-.14,4.73-.15,10.56-.15S319.47,241.67,319.47,241.75Z" style="fill: rgb(224, 224, 224); transform-origin: 308.91px 241.745px;" id="el10royan4b70o" class="animable"></path><rect x="306.69" y="246.23" width="3.58" height="7.54" style="fill: rgb(224, 224, 224); transform-origin: 308.48px 250px;" id="el63m7pctvhts" class="animable"></rect><path d="M319.47,256.73c0,.08-4.73.15-10.56.15s-10.56-.07-10.56-.15,4.73-.14,10.56-.14S319.47,256.65,319.47,256.73Z" style="fill: rgb(224, 224, 224); transform-origin: 308.91px 256.735px;" id="elxogp1ori2q" class="animable"></path><rect x="306.69" y="261.27" width="3.58" height="7.54" style="fill: rgb(224, 224, 224); transform-origin: 308.48px 265.04px;" id="elkrio4yhofmj" class="animable"></rect><rect x="306.69" y="276.52" width="3.58" height="7.54" style="fill: rgb(224, 224, 224); transform-origin: 308.48px 280.29px;" id="elgqtk648q6i" class="animable"></rect><path d="M319.47,271.78c0,.08-4.73.14-10.56.14s-10.56-.06-10.56-.14,4.73-.15,10.56-.15S319.47,271.7,319.47,271.78Z" style="fill: rgb(224, 224, 224); transform-origin: 308.91px 271.775px;" id="elpox0fw8jif" class="animable"></path><rect x="285.38" y="200.63" width="3.58" height="7.54" style="fill: rgb(250, 250, 250); transform-origin: 287.17px 204.4px;" id="elhb3jcgsapol" class="animable"></rect><path d="M298.16,211.13c0,.08-4.73.14-10.56.14s-10.56-.06-10.56-.14,4.73-.15,10.56-.15S298.16,211.05,298.16,211.13Z" style="fill: rgb(224, 224, 224); transform-origin: 287.6px 211.125px;" id="el63f23z1k1zw" class="animable"></path><rect x="285.38" y="215.83" width="3.58" height="7.54" style="fill: rgb(250, 250, 250); transform-origin: 287.17px 219.6px;" id="elsu1v2m49sdl" class="animable"></rect><path d="M298.16,226.33c0,.08-4.73.14-10.56.14s-10.56-.06-10.56-.14,4.73-.14,10.56-.14S298.16,226.25,298.16,226.33Z" style="fill: rgb(224, 224, 224); transform-origin: 287.6px 226.33px;" id="el0kwkqfj32m0k" class="animable"></path><rect x="285.38" y="231.03" width="3.58" height="7.54" style="fill: rgb(250, 250, 250); transform-origin: 287.17px 234.8px;" id="elume2t55l2pt" class="animable"></rect><path d="M298.16,241.53c0,.08-4.73.14-10.56.14s-10.56-.06-10.56-.14,4.73-.14,10.56-.14S298.16,241.45,298.16,241.53Z" style="fill: rgb(224, 224, 224); transform-origin: 287.6px 241.53px;" id="elq5aneaj8ljj" class="animable"></path><rect x="285.38" y="246.23" width="3.58" height="7.54" style="fill: rgb(250, 250, 250); transform-origin: 287.17px 250px;" id="elfgouc9au62g" class="animable"></rect><path d="M298.16,256.73c0,.08-4.73.15-10.56.15s-10.56-.07-10.56-.15,4.73-.14,10.56-.14S298.16,256.65,298.16,256.73Z" style="fill: rgb(224, 224, 224); transform-origin: 287.6px 256.735px;" id="elrnpn9vaq0s" class="animable"></path><rect x="285.38" y="261.43" width="3.58" height="7.54" style="fill: rgb(250, 250, 250); transform-origin: 287.17px 265.2px;" id="elfney44q921i" class="animable"></rect><path d="M298.16,271.93c0,.08-4.73.15-10.56.15S277,272,277,271.93s4.73-.14,10.56-.14S298.16,271.85,298.16,271.93Z" style="fill: rgb(224, 224, 224); transform-origin: 287.58px 271.935px;" id="elh99l33lt8k" class="animable"></path><rect x="285.38" y="276.63" width="3.58" height="7.54" style="fill: rgb(250, 250, 250); transform-origin: 287.17px 280.4px;" id="el4wdaui6bc3c" class="animable"></rect><rect x="512.65" y="61.89" width="48.17" height="126.48" style="fill: rgb(235, 235, 235); transform-origin: 536.735px 125.13px;" id="el9t7fwygeeyq" class="animable"></rect><rect x="536.73" y="61.89" width="24.08" height="126.48" style="fill: rgb(224, 224, 224); transform-origin: 548.77px 125.13px;" id="eldh3iq4aqelp" class="animable"></rect><rect x="518.15" y="46.85" width="17.01" height="15.03" style="fill: rgb(235, 235, 235); transform-origin: 526.655px 54.365px;" id="el91z7k8eqlgv" class="animable"></rect><rect x="531.11" y="46.85" width="4.05" height="15.03" style="fill: rgb(224, 224, 224); transform-origin: 533.135px 54.365px;" id="el32rqq34t7c1" class="animable"></rect><rect x="508.64" y="61.01" width="53.59" height="0.88" style="fill: rgb(224, 224, 224); transform-origin: 535.435px 61.45px;" id="elwpkbfdfo99" class="animable"></rect><rect x="522.16" y="68.44" width="4.08" height="8.62" style="fill: rgb(255, 255, 255); transform-origin: 524.2px 72.75px;" id="elgeaxyzhfwok" class="animable"></rect><path d="M536.73,80.45c0,.09-5.39.17-12,.17s-12-.08-12-.17,5.39-.16,12-.16S536.73,80.36,536.73,80.45Z" style="fill: rgb(224, 224, 224); transform-origin: 524.73px 80.455px;" id="el75rfbbhlc5l" class="animable"></path><rect x="546.45" y="68.44" width="4.08" height="8.62" style="fill: rgb(245, 245, 245); transform-origin: 548.49px 72.75px;" id="elti24ylbibkn" class="animable"></rect><path d="M561,80.45c0,.09-5.4.17-12,.17s-12-.08-12-.17,5.39-.16,12-.16S561,80.36,561,80.45Z" style="fill: rgb(235, 235, 235); transform-origin: 549px 80.455px;" id="elqytxd42hzlq" class="animable"></path><rect x="546.45" y="85.57" width="4.08" height="8.62" style="fill: rgb(245, 245, 245); transform-origin: 548.49px 89.88px;" id="el0doxas3guw1i" class="animable"></rect><path d="M561,97.58c0,.09-5.4.16-12,.16s-12-.07-12-.16,5.39-.17,12-.17S561,97.48,561,97.58Z" style="fill: rgb(235, 235, 235); transform-origin: 549px 97.575px;" id="el38l9cujh8ad" class="animable"></path><rect x="546.45" y="103.21" width="4.08" height="8.62" style="fill: rgb(245, 245, 245); transform-origin: 548.49px 107.52px;" id="elo5cm3ozqqua" class="animable"></rect><path d="M561,115.22c0,.09-5.4.16-12,.16s-12-.07-12-.16,5.39-.17,12-.17S561,115.12,561,115.22Z" style="fill: rgb(235, 235, 235); transform-origin: 549px 115.215px;" id="elh7cco06bkh" class="animable"></path><rect x="546.45" y="120.85" width="4.08" height="8.62" style="fill: rgb(245, 245, 245); transform-origin: 548.49px 125.16px;" id="el61fu8fs1ui3" class="animable"></rect><path d="M561,132.85c0,.1-5.4.17-12,.17s-12-.07-12-.17,5.39-.16,12-.16S561,132.76,561,132.85Z" style="fill: rgb(235, 235, 235); transform-origin: 549px 132.855px;" id="elkbpmwx85ulg" class="animable"></path><rect x="546.45" y="137.98" width="4.08" height="8.62" style="fill: rgb(245, 245, 245); transform-origin: 548.49px 142.29px;" id="ellss1k5m5yv" class="animable"></rect><path d="M561,150c0,.09-5.4.16-12,.16s-12-.07-12-.16,5.39-.17,12-.17S561,149.9,561,150Z" style="fill: rgb(235, 235, 235); transform-origin: 549px 149.995px;" id="el1w0k84jbvub" class="animable"></path><rect x="546.45" y="155.18" width="4.08" height="8.62" style="fill: rgb(245, 245, 245); transform-origin: 548.49px 159.49px;" id="el4eodum4p68i" class="animable"></rect><rect x="546.45" y="172.61" width="4.08" height="8.62" style="fill: rgb(245, 245, 245); transform-origin: 548.49px 176.92px;" id="el14370kmdrqa" class="animable"></rect><path d="M561,167.19c0,.09-5.4.17-12,.17s-12-.08-12-.17,5.39-.16,12-.16S561,167.1,561,167.19Z" style="fill: rgb(235, 235, 235); transform-origin: 549px 167.195px;" id="el0i3c9nbhp6iq" class="animable"></path><rect x="522.16" y="85.83" width="4.08" height="8.62" style="fill: rgb(255, 255, 255); transform-origin: 524.2px 90.14px;" id="el7lyd343uz5w" class="animable"></rect><path d="M536.73,97.84c0,.09-5.39.16-12,.16s-12-.07-12-.16,5.39-.17,12-.17S536.73,97.75,536.73,97.84Z" style="fill: rgb(224, 224, 224); transform-origin: 524.73px 97.835px;" id="el1rrlgcd3zba" class="animable"></path><rect x="522.16" y="103.21" width="4.08" height="8.62" style="fill: rgb(255, 255, 255); transform-origin: 524.2px 107.52px;" id="elim8pnsjxbbq" class="animable"></rect><path d="M536.73,115.22c0,.09-5.39.17-12,.17s-12-.08-12-.17,5.39-.16,12-.16S536.73,115.13,536.73,115.22Z" style="fill: rgb(224, 224, 224); transform-origin: 524.73px 115.225px;" id="elxk4p8leo0j9" class="animable"></path><rect x="522.16" y="120.6" width="4.08" height="8.62" style="fill: rgb(255, 255, 255); transform-origin: 524.2px 124.91px;" id="elkgnnzm6h4mo" class="animable"></rect><path d="M536.73,132.61c0,.09-5.39.16-12,.16s-12-.07-12-.16,5.39-.17,12-.17S536.73,132.51,536.73,132.61Z" style="fill: rgb(224, 224, 224); transform-origin: 524.73px 132.605px;" id="elpq99al4iur" class="animable"></path><rect x="522.16" y="137.98" width="4.08" height="8.62" style="fill: rgb(255, 255, 255); transform-origin: 524.2px 142.29px;" id="eljaqkury4v8" class="animable"></rect><path d="M536.73,150c0,.09-5.39.16-12,.16s-12-.07-12-.16,5.39-.17,12-.17S536.73,149.9,536.73,150Z" style="fill: rgb(224, 224, 224); transform-origin: 524.73px 149.995px;" id="el95vchatb3y6" class="animable"></path><rect x="522.16" y="155.36" width="4.08" height="8.62" style="fill: rgb(255, 255, 255); transform-origin: 524.2px 159.67px;" id="ela86i2wfmag" class="animable"></rect><path d="M536.73,167.37c0,.09-5.39.17-12,.17s-12-.08-12-.17,5.39-.16,12-.16S536.73,167.28,536.73,167.37Z" style="fill: rgb(224, 224, 224); transform-origin: 524.73px 167.375px;" id="el7r6aq644043" class="animable"></path><rect x="522.16" y="172.75" width="4.08" height="8.62" style="fill: rgb(255, 255, 255); transform-origin: 524.2px 177.06px;" id="elquqy9wi8ttb" class="animable"></rect><rect x="388.84" y="205.01" width="56.87" height="108.28" style="fill: rgb(224, 224, 224); transform-origin: 417.275px 259.15px;" id="el5wbl2y7a4vj" class="animable"></rect><rect x="419.05" y="205.01" width="26.66" height="108.28" style="fill: rgb(235, 235, 235); transform-origin: 432.38px 259.15px;" id="elbb05oolcjxd" class="animable"></rect><rect x="400.77" y="215.2" width="5.11" height="12.46" style="fill: rgb(245, 245, 245); transform-origin: 403.325px 221.43px;" id="elli1dlydh5rp" class="animable"></rect><rect x="400.77" y="263.98" width="5.11" height="12.46" style="fill: rgb(245, 245, 245); transform-origin: 403.325px 270.21px;" id="elswvi2whhbqd" class="animable"></rect><path d="M419.05,232.56c0,.1-6.76.19-15.1.19s-15.11-.09-15.11-.19,6.76-.2,15.11-.2S419.05,232.45,419.05,232.56Z" style="fill: rgb(245, 245, 245); transform-origin: 403.945px 232.555px;" id="eldjzurbpk6f5" class="animable"></path><rect x="400.77" y="239.78" width="5.11" height="12.46" style="fill: rgb(245, 245, 245); transform-origin: 403.325px 246.01px;" id="elf10a5u2zve5" class="animable"></rect><path d="M419.05,257.13c0,.11-6.76.19-15.1.19s-15.11-.08-15.11-.19,6.76-.19,15.11-.19S419.05,257,419.05,257.13Z" style="fill: rgb(245, 245, 245); transform-origin: 403.945px 257.13px;" id="el40p1q1bw5o2" class="animable"></path><rect x="424.71" y="215.2" width="5.11" height="12.46" style="fill: rgb(224, 224, 224); transform-origin: 427.265px 221.43px;" id="elncpw9kv8vhk" class="animable"></rect><rect x="435.8" y="215.2" width="5.11" height="12.46" style="fill: rgb(224, 224, 224); transform-origin: 438.355px 221.43px;" id="elggc9sxibvoi" class="animable"></rect><rect x="424.71" y="238.85" width="5.11" height="12.46" style="fill: rgb(224, 224, 224); transform-origin: 427.265px 245.08px;" id="eljh5mkisauar" class="animable"></rect><rect x="435.8" y="238.85" width="5.11" height="12.46" style="fill: rgb(224, 224, 224); transform-origin: 438.355px 245.08px;" id="eldycufjfoxsd" class="animable"></rect><rect x="424.71" y="262.5" width="5.11" height="12.46" style="fill: rgb(224, 224, 224); transform-origin: 427.265px 268.73px;" id="elst9b0p4c67" class="animable"></rect><rect x="435.8" y="262.5" width="5.11" height="12.46" style="fill: rgb(224, 224, 224); transform-origin: 438.355px 268.73px;" id="eltpl4xygv49" class="animable"></rect><rect x="384.57" y="202.39" width="65.42" height="2.71" style="fill: rgb(224, 224, 224); transform-origin: 417.28px 203.745px;" id="elsew0jx1qrh" class="animable"></rect><path d="M446.11,205.36c0,.11-12.71.2-28.39.2s-28.39-.09-28.39-.2,12.71-.19,28.39-.19S446.11,205.26,446.11,205.36Z" style="fill: rgb(235, 235, 235); transform-origin: 417.72px 205.365px;" id="eltbf5an6mysr" class="animable"></path><rect x="610.45" y="127.01" width="48.63" height="154.6" style="fill: rgb(245, 245, 245); transform-origin: 634.765px 204.31px;" id="ellriisakiztp" class="animable"></rect><rect x="634.77" y="127.01" width="24.31" height="154.18" style="fill: rgb(235, 235, 235); transform-origin: 646.925px 204.1px;" id="el5hiisql67bm" class="animable"></rect><rect x="616.01" y="111.84" width="17.17" height="15.18" style="fill: rgb(245, 245, 245); transform-origin: 624.595px 119.43px;" id="elyo9h2e3e4h" class="animable"></rect><rect x="629.09" y="111.84" width="4.09" height="15.18" style="fill: rgb(235, 235, 235); transform-origin: 631.135px 119.43px;" id="eliygzc5gz05r" class="animable"></rect><polyline points="606.4 127.01 606.4 126.13 660.5 126.13 660.5 127.01" style="fill: rgb(224, 224, 224); transform-origin: 633.45px 126.57px;" id="ellfxt5a6thdo" class="animable"></polyline><rect x="620.05" y="133.63" width="4.12" height="8.71" style="fill: rgb(250, 250, 250); transform-origin: 622.11px 137.985px;" id="eldr9ugdhhq94" class="animable"></rect><path d="M634.77,145.76c0,.09-5.45.16-12.16.16s-12.16-.07-12.16-.16,5.45-.17,12.16-.17S634.77,145.67,634.77,145.76Z" style="fill: rgb(224, 224, 224); transform-origin: 622.61px 145.755px;" id="eluw981jw365" class="animable"></path><rect x="644.58" y="133.63" width="4.12" height="8.71" style="fill: rgb(224, 224, 224); transform-origin: 646.64px 137.985px;" id="elsf7kccscfh" class="animable"></rect><path d="M659.29,145.76c0,.09-5.44.16-12.15.16s-12.16-.07-12.16-.16,5.44-.17,12.16-.17S659.29,145.67,659.29,145.76Z" style="fill: rgb(224, 224, 224); transform-origin: 647.135px 145.755px;" id="elglcju8gn406" class="animable"></path><rect x="644.58" y="150.92" width="4.12" height="8.71" style="fill: rgb(224, 224, 224); transform-origin: 646.64px 155.275px;" id="elja78dj8umeq" class="animable"></rect><path d="M659.29,163c0,.1-5.44.17-12.15.17S635,163.14,635,163s5.44-.16,12.16-.16S659.29,163,659.29,163Z" style="fill: rgb(224, 224, 224); transform-origin: 647.145px 163.005px;" id="ellowsk5kb29g" class="animable"></path><rect x="644.58" y="168.73" width="4.12" height="8.71" style="fill: rgb(224, 224, 224); transform-origin: 646.64px 173.085px;" id="ely9h06dmica8" class="animable"></rect><path d="M659.29,180.85c0,.09-5.44.17-12.15.17s-12.16-.08-12.16-.17,5.44-.16,12.16-.16S659.29,180.76,659.29,180.85Z" style="fill: rgb(224, 224, 224); transform-origin: 647.135px 180.855px;" id="el5526628mhcs" class="animable"></path><rect x="644.58" y="186.54" width="4.12" height="8.71" style="fill: rgb(224, 224, 224); transform-origin: 646.64px 190.895px;" id="eldzxbqrsgj36" class="animable"></rect><path d="M659.29,198.66c0,.09-5.44.17-12.15.17s-12.16-.08-12.16-.17,5.44-.17,12.16-.17S659.29,198.57,659.29,198.66Z" style="fill: rgb(224, 224, 224); transform-origin: 647.135px 198.66px;" id="elbu6lkuoor7a" class="animable"></path><rect x="644.58" y="203.84" width="4.12" height="8.71" style="fill: rgb(224, 224, 224); transform-origin: 646.64px 208.195px;" id="elps6dudq8vz" class="animable"></rect><path d="M659.29,216c0,.09-5.44.17-12.15.17S635,216.05,635,216s5.44-.17,12.16-.17S659.29,215.87,659.29,216Z" style="fill: rgb(224, 224, 224); transform-origin: 647.145px 216px;" id="el673yos6i32" class="animable"></path><rect x="644.58" y="221.2" width="4.12" height="8.71" style="fill: rgb(224, 224, 224); transform-origin: 646.64px 225.555px;" id="eluboy7vlbqzm" class="animable"></rect><rect x="644.58" y="238.8" width="4.12" height="8.71" style="fill: rgb(224, 224, 224); transform-origin: 646.64px 243.155px;" id="elyclcdiigduj" class="animable"></rect><path d="M659.29,233.33c0,.09-5.44.16-12.15.16s-12.16-.07-12.16-.16,5.44-.17,12.16-.17S659.29,233.24,659.29,233.33Z" style="fill: rgb(224, 224, 224); transform-origin: 647.135px 233.325px;" id="elpxxsvx41rfh" class="animable"></path><rect x="620.05" y="151.18" width="4.12" height="8.71" style="fill: rgb(250, 250, 250); transform-origin: 622.11px 155.535px;" id="eliya9o9w0v2m" class="animable"></rect><path d="M634.77,163.31c0,.09-5.45.16-12.16.16s-12.16-.07-12.16-.16,5.45-.17,12.16-.17S634.77,163.22,634.77,163.31Z" style="fill: rgb(224, 224, 224); transform-origin: 622.61px 163.305px;" id="elkdtse4tg739" class="animable"></path><rect x="620.05" y="168.73" width="4.12" height="8.71" style="fill: rgb(250, 250, 250); transform-origin: 622.11px 173.085px;" id="elk08j3yh4oar" class="animable"></rect><path d="M634.77,180.86c0,.09-5.45.17-12.16.17s-12.16-.08-12.16-.17,5.45-.17,12.16-.17S634.77,180.77,634.77,180.86Z" style="fill: rgb(224, 224, 224); transform-origin: 622.61px 180.86px;" id="elpj7ek9bdwn" class="animable"></path><rect x="620.05" y="186.28" width="4.12" height="8.71" style="fill: rgb(250, 250, 250); transform-origin: 622.11px 190.635px;" id="elfcsqwqcgjfn" class="animable"></rect><path d="M634.77,198.41c0,.09-5.45.17-12.16.17s-12.16-.08-12.16-.17,5.45-.17,12.16-.17S634.77,198.32,634.77,198.41Z" style="fill: rgb(224, 224, 224); transform-origin: 622.61px 198.41px;" id="elambrru14bxc" class="animable"></path><rect x="620.05" y="203.84" width="4.12" height="8.71" style="fill: rgb(250, 250, 250); transform-origin: 622.11px 208.195px;" id="elhwy6m05pkt9" class="animable"></rect><path d="M634.77,216c0,.09-5.45.17-12.16.17s-12.16-.08-12.16-.17,5.45-.17,12.16-.17S634.77,215.87,634.77,216Z" style="fill: rgb(224, 224, 224); transform-origin: 622.61px 216px;" id="el3nxyi2hqzl9" class="animable"></path><rect x="620.05" y="221.39" width="4.12" height="8.71" style="fill: rgb(250, 250, 250); transform-origin: 622.11px 225.745px;" id="eldzxe0dp381" class="animable"></rect><path d="M634.77,233.51c0,.09-5.45.17-12.16.17s-12.16-.08-12.16-.17,5.45-.17,12.16-.17S634.77,233.42,634.77,233.51Z" style="fill: rgb(224, 224, 224); transform-origin: 622.61px 233.51px;" id="elkmx0xdko22l" class="animable"></path><rect x="620.05" y="238.94" width="4.12" height="8.71" style="fill: rgb(250, 250, 250); transform-origin: 622.11px 243.295px;" id="el5qk8b2vs5er" class="animable"></rect><rect x="610.67" y="208.76" width="79.81" height="105.6" style="fill: rgb(235, 235, 235); transform-origin: 650.575px 261.56px;" id="elgmali4kj9rd" class="animable"></rect><rect x="653.06" y="208.76" width="37.42" height="105.6" style="fill: rgb(224, 224, 224); transform-origin: 671.77px 261.56px;" id="elrj5awslc31" class="animable"></rect><rect x="627.4" y="223.06" width="7.18" height="17.49" style="fill: rgb(245, 245, 245); transform-origin: 630.99px 231.805px;" id="el6dzyijgwjze" class="animable"></rect><rect x="627.4" y="291.51" width="7.18" height="17.49" style="fill: rgb(245, 245, 245); transform-origin: 630.99px 300.255px;" id="elav9auamszx5" class="animable"></rect><path d="M653.06,247.41c0,.2-9.49.35-21.2.35s-21.19-.15-21.19-.35,9.49-.36,21.19-.36S653.06,247.21,653.06,247.41Z" style="fill: rgb(245, 245, 245); transform-origin: 631.865px 247.405px;" id="elw53k9ngwpu9" class="animable"></path><rect x="627.4" y="257.54" width="7.18" height="17.49" style="fill: rgb(245, 245, 245); transform-origin: 630.99px 266.285px;" id="el5cemratm55l" class="animable"></rect><path d="M653.06,281.89c0,.2-9.49.36-21.2.36s-21.19-.16-21.19-.36,9.49-.35,21.19-.35S653.06,281.7,653.06,281.89Z" style="fill: rgb(245, 245, 245); transform-origin: 631.865px 281.895px;" id="elkd3pntz5vhs" class="animable"></path><rect x="661" y="223.06" width="7.18" height="17.49" style="fill: rgb(245, 245, 245); transform-origin: 664.59px 231.805px;" id="el7ti8sclg09q" class="animable"></rect><rect x="676.57" y="223.06" width="7.18" height="17.49" style="fill: rgb(245, 245, 245); transform-origin: 680.16px 231.805px;" id="elssvcph4ilz" class="animable"></rect><rect x="661" y="256.24" width="7.18" height="17.49" style="fill: rgb(245, 245, 245); transform-origin: 664.59px 264.985px;" id="el0a33xtgsg25x" class="animable"></rect><rect x="676.57" y="256.24" width="7.18" height="17.49" style="fill: rgb(245, 245, 245); transform-origin: 680.16px 264.985px;" id="elqf8tydty2vg" class="animable"></rect><rect x="661" y="289.43" width="7.18" height="17.49" style="fill: rgb(245, 245, 245); transform-origin: 664.59px 298.175px;" id="el8gdl0s4dz2i" class="animable"></rect><rect x="676.57" y="289.43" width="7.18" height="17.49" style="fill: rgb(245, 245, 245); transform-origin: 680.16px 298.175px;" id="eldtw9roaame" class="animable"></rect><rect x="604.67" y="205.08" width="91.81" height="3.81" style="fill: rgb(224, 224, 224); transform-origin: 650.575px 206.985px;" id="elft4xcxzqo5" class="animable"></rect><path d="M691,209.25c0,.2-17.83.35-39.83.35s-39.84-.15-39.84-.35,17.83-.36,39.84-.36S691,209.05,691,209.25Z" style="fill: rgb(235, 235, 235); transform-origin: 651.165px 209.245px;" id="elqd1eki3jg" class="animable"></path><polygon points="607.04 313.8 526.6 313.8 526.25 186.25 606.69 186.25 607.04 313.8" style="fill: rgb(235, 235, 235); transform-origin: 566.645px 250.025px;" id="elkcjz2fvzt5m" class="animable"></polygon><rect x="566.47" y="186.25" width="40.22" height="127.54" style="fill: rgb(224, 224, 224); transform-origin: 586.58px 250.02px;" id="elkfy0wbeh0is" class="animable"></rect><rect x="535.43" y="161.14" width="28.41" height="25.11" style="fill: rgb(235, 235, 235); transform-origin: 549.635px 173.695px;" id="el2gqfx2h1e9p" class="animable"></rect><rect x="557.07" y="161.14" width="6.77" height="25.11" style="fill: rgb(224, 224, 224); transform-origin: 560.455px 173.695px;" id="elh5ibtpj7f64" class="animable"></rect><rect x="519.54" y="184.79" width="89.5" height="1.46" style="fill: rgb(224, 224, 224); transform-origin: 564.29px 185.52px;" id="el42qszpbgoe4" class="animable"></rect><rect x="542.13" y="197.2" width="6.81" height="14.4" style="fill: rgb(255, 255, 255); transform-origin: 545.535px 204.4px;" id="elnt4l8wdyjn" class="animable"></rect><path d="M566.47,217.26c0,.15-9,.28-20.11.28s-20.11-.13-20.11-.28,9-.27,20.11-.27S566.47,217.11,566.47,217.26Z" style="fill: rgb(224, 224, 224); transform-origin: 546.36px 217.265px;" id="elisr6o42g91" class="animable"></path><rect x="582.7" y="197.2" width="6.81" height="14.4" style="fill: rgb(245, 245, 245); transform-origin: 586.105px 204.4px;" id="el9y9zl5366mv" class="animable"></rect><path d="M607,217.26c0,.15-9,.28-20.11.28s-20.11-.13-20.11-.28,9-.27,20.11-.27S607,217.11,607,217.26Z" style="fill: rgb(235, 235, 235); transform-origin: 586.89px 217.265px;" id="ele1e1o2pi089" class="animable"></path><rect x="582.7" y="225.8" width="6.81" height="14.4" style="fill: rgb(245, 245, 245); transform-origin: 586.105px 233px;" id="elr940p4169hc" class="animable"></rect><path d="M607,245.86c0,.15-9,.27-20.11.27s-20.11-.12-20.11-.27,9-.28,20.11-.28S607,245.71,607,245.86Z" style="fill: rgb(235, 235, 235); transform-origin: 586.89px 245.855px;" id="elqnq3a4wvbif" class="animable"></path><rect x="582.7" y="255.26" width="6.81" height="14.4" style="fill: rgb(245, 245, 245); transform-origin: 586.105px 262.46px;" id="elna33f9tk2rm" class="animable"></rect><path d="M607,275.32c0,.15-9,.27-20.11.27s-20.11-.12-20.11-.27,9-.28,20.11-.28S607,275.16,607,275.32Z" style="fill: rgb(235, 235, 235); transform-origin: 586.89px 275.315px;" id="ellyrvstwsrwm" class="animable"></path><rect x="582.7" y="284.72" width="6.81" height="14.4" style="fill: rgb(245, 245, 245); transform-origin: 586.105px 291.92px;" id="elzfcx6hiuo1j" class="animable"></rect><path d="M607,304.78c0,.15-9,.27-20.11.27s-20.11-.12-20.11-.27,9-.28,20.11-.28S607,304.62,607,304.78Z" style="fill: rgb(235, 235, 235); transform-origin: 586.89px 304.775px;" id="elde804ehiacs" class="animable"></path><rect x="542.13" y="226.24" width="6.81" height="14.4" style="fill: rgb(255, 255, 255); transform-origin: 545.535px 233.44px;" id="el1oueo4h586gi" class="animable"></rect><path d="M566.47,246.29c0,.16-9,.28-20.11.28s-20.11-.12-20.11-.28,9-.27,20.11-.27S566.47,246.14,566.47,246.29Z" style="fill: rgb(224, 224, 224); transform-origin: 546.36px 246.295px;" id="elb0iymxoozzi" class="animable"></path><rect x="542.13" y="255.27" width="6.81" height="14.4" style="fill: rgb(255, 255, 255); transform-origin: 545.535px 262.47px;" id="elat4q7rj790e" class="animable"></rect><path d="M566.47,275.33c0,.15-9,.27-20.11.27s-20.11-.12-20.11-.27,9-.28,20.11-.28S566.47,275.18,566.47,275.33Z" style="fill: rgb(224, 224, 224); transform-origin: 546.36px 275.325px;" id="el97jo30mkpkh" class="animable"></path><rect x="542.13" y="284.3" width="6.81" height="14.4" style="fill: rgb(255, 255, 255); transform-origin: 545.535px 291.5px;" id="el06j4cugtymef" class="animable"></rect><path d="M566.47,304.36c0,.15-9,.28-20.11.28s-20.11-.13-20.11-.28,9-.27,20.11-.27S566.47,304.21,566.47,304.36Z" style="fill: rgb(224, 224, 224); transform-origin: 546.36px 304.365px;" id="elfn0lh3dquu8" class="animable"></path><rect x="442.01" y="78.78" width="66" height="234.46" style="fill: rgb(235, 235, 235); transform-origin: 475.01px 196.01px;" id="eltucmpac3ur" class="animable"></rect><rect x="447.37" y="86.87" width="5.88" height="12.39" style="fill: rgb(255, 255, 255); transform-origin: 450.31px 93.065px;" id="el04bx2slgole" class="animable"></rect><rect x="459.72" y="86.87" width="5.88" height="12.39" style="fill: rgb(255, 255, 255); transform-origin: 462.66px 93.065px;" id="elmp014i9sfy" class="animable"></rect><rect x="472.07" y="86.87" width="5.88" height="12.39" style="fill: rgb(255, 255, 255); transform-origin: 475.01px 93.065px;" id="elpzejxd8qfoi" class="animable"></rect><rect x="484.42" y="86.87" width="5.88" height="12.39" style="fill: rgb(255, 255, 255); transform-origin: 487.36px 93.065px;" id="elajufp19p125" class="animable"></rect><rect x="496.77" y="86.87" width="5.88" height="12.39" style="fill: rgb(255, 255, 255); transform-origin: 499.71px 93.065px;" id="elwm91uor4ojb" class="animable"></rect><rect x="447.37" y="104.2" width="5.88" height="12.39" style="fill: rgb(255, 255, 255); transform-origin: 450.31px 110.395px;" id="el3dzgg7eokyj" class="animable"></rect><rect x="459.72" y="104.2" width="5.88" height="12.39" style="fill: rgb(255, 255, 255); transform-origin: 462.66px 110.395px;" id="elskrumn3hv9" class="animable"></rect><rect x="472.07" y="104.2" width="5.88" height="12.39" style="fill: rgb(255, 255, 255); transform-origin: 475.01px 110.395px;" id="elasnn19wgots" class="animable"></rect><rect x="484.42" y="104.2" width="5.88" height="12.39" style="fill: rgb(255, 255, 255); transform-origin: 487.36px 110.395px;" id="el76ctsdgcp72" class="animable"></rect><rect x="496.77" y="104.2" width="5.88" height="12.39" style="fill: rgb(255, 255, 255); transform-origin: 499.71px 110.395px;" id="elme3hvckgdq" class="animable"></rect><rect x="447.37" y="121.54" width="5.88" height="12.39" style="fill: rgb(255, 255, 255); transform-origin: 450.31px 127.735px;" id="eltjphy8r844m" class="animable"></rect><rect x="459.72" y="121.54" width="5.88" height="12.39" style="fill: rgb(255, 255, 255); transform-origin: 462.66px 127.735px;" id="el8mppgtnz30n" class="animable"></rect><rect x="472.07" y="121.54" width="5.88" height="12.39" style="fill: rgb(255, 255, 255); transform-origin: 475.01px 127.735px;" id="elm187dh11i7q" class="animable"></rect><rect x="484.42" y="121.54" width="5.88" height="12.39" style="fill: rgb(255, 255, 255); transform-origin: 487.36px 127.735px;" id="elt19tlbkeh1j" class="animable"></rect><rect x="496.77" y="121.54" width="5.88" height="12.39" style="fill: rgb(255, 255, 255); transform-origin: 499.71px 127.735px;" id="ela2jlrase6yc" class="animable"></rect><rect x="447.37" y="138.87" width="5.88" height="12.39" style="fill: rgb(255, 255, 255); transform-origin: 450.31px 145.065px;" id="el1l82cj3tfpv" class="animable"></rect><rect x="459.72" y="138.87" width="5.88" height="12.39" style="fill: rgb(255, 255, 255); transform-origin: 462.66px 145.065px;" id="elcgjeghhtp6s" class="animable"></rect><rect x="472.07" y="138.87" width="5.88" height="12.39" style="fill: rgb(255, 255, 255); transform-origin: 475.01px 145.065px;" id="elz2hn5fnrrdj" class="animable"></rect><rect x="484.42" y="138.87" width="5.88" height="12.39" style="fill: rgb(255, 255, 255); transform-origin: 487.36px 145.065px;" id="ele0y51rn1zxd" class="animable"></rect><rect x="496.77" y="138.87" width="5.88" height="12.39" style="fill: rgb(255, 255, 255); transform-origin: 499.71px 145.065px;" id="elmbl1843sr48" class="animable"></rect><rect x="447.37" y="156.2" width="5.88" height="12.39" style="fill: rgb(255, 255, 255); transform-origin: 450.31px 162.395px;" id="elmwh0mokbvd" class="animable"></rect><rect x="459.72" y="156.2" width="5.88" height="12.39" style="fill: rgb(255, 255, 255); transform-origin: 462.66px 162.395px;" id="el4n3qhebujiv" class="animable"></rect><rect x="472.07" y="156.2" width="5.88" height="12.39" style="fill: rgb(255, 255, 255); transform-origin: 475.01px 162.395px;" id="elxjvkh1hjofr" class="animable"></rect><rect x="484.42" y="156.2" width="5.88" height="12.39" style="fill: rgb(255, 255, 255); transform-origin: 487.36px 162.395px;" id="el853tfmesojs" class="animable"></rect><rect x="496.77" y="156.2" width="5.88" height="12.39" style="fill: rgb(255, 255, 255); transform-origin: 499.71px 162.395px;" id="el1sit33gnp0u" class="animable"></rect><rect x="447.37" y="173.54" width="5.88" height="12.39" style="fill: rgb(255, 255, 255); transform-origin: 450.31px 179.735px;" id="el5xpkt7ecfhx" class="animable"></rect><rect x="459.72" y="173.54" width="5.88" height="12.39" style="fill: rgb(255, 255, 255); transform-origin: 462.66px 179.735px;" id="el0ez3in2dkljo" class="animable"></rect><rect x="472.07" y="173.54" width="5.88" height="12.39" style="fill: rgb(255, 255, 255); transform-origin: 475.01px 179.735px;" id="elxe18023brq8" class="animable"></rect><rect x="484.42" y="173.54" width="5.88" height="12.39" style="fill: rgb(255, 255, 255); transform-origin: 487.36px 179.735px;" id="elfeieg2e5ppc" class="animable"></rect><rect x="496.77" y="173.54" width="5.88" height="12.39" style="fill: rgb(255, 255, 255); transform-origin: 499.71px 179.735px;" id="eltat2i6jtyp" class="animable"></rect><rect x="447.37" y="190.87" width="5.88" height="12.39" style="fill: rgb(255, 255, 255); transform-origin: 450.31px 197.065px;" id="elswtl345ydsl" class="animable"></rect><rect x="459.72" y="190.87" width="5.88" height="12.39" style="fill: rgb(255, 255, 255); transform-origin: 462.66px 197.065px;" id="el2aqtymjs566" class="animable"></rect><rect x="472.07" y="190.87" width="5.88" height="12.39" style="fill: rgb(255, 255, 255); transform-origin: 475.01px 197.065px;" id="eljvoaduxsuba" class="animable"></rect><rect x="484.42" y="190.87" width="5.88" height="12.39" style="fill: rgb(255, 255, 255); transform-origin: 487.36px 197.065px;" id="eleq8r9hmt4yq" class="animable"></rect><rect x="496.77" y="190.87" width="5.88" height="12.39" style="fill: rgb(255, 255, 255); transform-origin: 499.71px 197.065px;" id="el70dv317b8l" class="animable"></rect><rect x="447.37" y="208.2" width="5.88" height="12.39" style="fill: rgb(255, 255, 255); transform-origin: 450.31px 214.395px;" id="el2c06nezdxel" class="animable"></rect><rect x="459.72" y="208.2" width="5.88" height="12.39" style="fill: rgb(255, 255, 255); transform-origin: 462.66px 214.395px;" id="ell5g6rxanmjb" class="animable"></rect><rect x="472.07" y="208.2" width="5.88" height="12.39" style="fill: rgb(255, 255, 255); transform-origin: 475.01px 214.395px;" id="elzgkvb46lna" class="animable"></rect><rect x="484.42" y="208.2" width="5.88" height="12.39" style="fill: rgb(255, 255, 255); transform-origin: 487.36px 214.395px;" id="elq8mdccn3xge" class="animable"></rect><rect x="496.77" y="208.2" width="5.88" height="12.39" style="fill: rgb(255, 255, 255); transform-origin: 499.71px 214.395px;" id="el0kj9vakjahm8" class="animable"></rect><rect x="447.37" y="225.54" width="5.88" height="12.39" style="fill: rgb(255, 255, 255); transform-origin: 450.31px 231.735px;" id="elibk95czspqi" class="animable"></rect><rect x="459.72" y="225.54" width="5.88" height="12.39" style="fill: rgb(255, 255, 255); transform-origin: 462.66px 231.735px;" id="elwa1vvs9r9a" class="animable"></rect><rect x="472.07" y="225.54" width="5.88" height="12.39" style="fill: rgb(255, 255, 255); transform-origin: 475.01px 231.735px;" id="ela0xd7adi0mv" class="animable"></rect><rect x="484.42" y="225.54" width="5.88" height="12.39" style="fill: rgb(255, 255, 255); transform-origin: 487.36px 231.735px;" id="elmnxmodnpe2j" class="animable"></rect><rect x="496.77" y="225.54" width="5.88" height="12.39" style="fill: rgb(255, 255, 255); transform-origin: 499.71px 231.735px;" id="elr1330lvi5e" class="animable"></rect><rect x="447.37" y="242.87" width="5.88" height="12.39" style="fill: rgb(255, 255, 255); transform-origin: 450.31px 249.065px;" id="elss7pedd439n" class="animable"></rect><rect x="459.72" y="242.87" width="5.88" height="12.39" style="fill: rgb(255, 255, 255); transform-origin: 462.66px 249.065px;" id="elbr0l7ja2pe9" class="animable"></rect><rect x="472.07" y="242.87" width="5.88" height="12.39" style="fill: rgb(255, 255, 255); transform-origin: 475.01px 249.065px;" id="elf4ncx45ypcp" class="animable"></rect><rect x="484.42" y="242.87" width="5.88" height="12.39" style="fill: rgb(255, 255, 255); transform-origin: 487.36px 249.065px;" id="elc8i4s7hd9f" class="animable"></rect><rect x="496.77" y="242.87" width="5.88" height="12.39" style="fill: rgb(255, 255, 255); transform-origin: 499.71px 249.065px;" id="el71p995es6p" class="animable"></rect><rect x="447.37" y="260.21" width="5.88" height="12.39" style="fill: rgb(255, 255, 255); transform-origin: 450.31px 266.405px;" id="elmr6qdryrio" class="animable"></rect><rect x="459.72" y="260.21" width="5.88" height="12.39" style="fill: rgb(255, 255, 255); transform-origin: 462.66px 266.405px;" id="elpxeumo3torl" class="animable"></rect><rect x="472.07" y="260.21" width="5.88" height="12.39" style="fill: rgb(255, 255, 255); transform-origin: 475.01px 266.405px;" id="el2sd2403anqx" class="animable"></rect><rect x="484.42" y="260.21" width="5.88" height="12.39" style="fill: rgb(255, 255, 255); transform-origin: 487.36px 266.405px;" id="el1orkjy8nfyyi" class="animable"></rect><rect x="496.77" y="260.21" width="5.88" height="12.39" style="fill: rgb(255, 255, 255); transform-origin: 499.71px 266.405px;" id="elb65vx07lsdl" class="animable"></rect><rect x="447.37" y="277.54" width="5.88" height="12.39" style="fill: rgb(255, 255, 255); transform-origin: 450.31px 283.735px;" id="elp6y63n0n1q" class="animable"></rect><rect x="459.72" y="277.54" width="5.88" height="12.39" style="fill: rgb(255, 255, 255); transform-origin: 462.66px 283.735px;" id="elh2nmrjau6p" class="animable"></rect><rect x="472.07" y="277.54" width="5.88" height="12.39" style="fill: rgb(255, 255, 255); transform-origin: 475.01px 283.735px;" id="elixkn4vctkh" class="animable"></rect><rect x="484.42" y="277.54" width="5.88" height="12.39" style="fill: rgb(255, 255, 255); transform-origin: 487.36px 283.735px;" id="eld45ga8ahera" class="animable"></rect><rect x="496.77" y="277.54" width="5.88" height="12.39" style="fill: rgb(255, 255, 255); transform-origin: 499.71px 283.735px;" id="elx2b4qw6muoj" class="animable"></rect><rect x="447.37" y="293.92" width="5.88" height="12.39" style="fill: rgb(255, 255, 255); transform-origin: 450.31px 300.115px;" id="el04kg0po8if74" class="animable"></rect><rect x="459.72" y="293.92" width="5.88" height="12.39" style="fill: rgb(255, 255, 255); transform-origin: 462.66px 300.115px;" id="elt5inc7a9tml" class="animable"></rect><rect x="472.07" y="293.92" width="5.88" height="12.39" style="fill: rgb(255, 255, 255); transform-origin: 475.01px 300.115px;" id="elwl1c8ssmfgf" class="animable"></rect><rect x="484.42" y="293.92" width="5.88" height="12.39" style="fill: rgb(255, 255, 255); transform-origin: 487.36px 300.115px;" id="eltgbtzfmi56f" class="animable"></rect><rect x="496.77" y="293.92" width="5.88" height="12.39" style="fill: rgb(255, 255, 255); transform-origin: 499.71px 300.115px;" id="elmi8k9k2gpro" class="animable"></rect><rect x="508.01" y="78.78" width="28.83" height="234.46" style="fill: rgb(224, 224, 224); transform-origin: 522.425px 196.01px;" id="els4t1skfc6la" class="animable"></rect><rect x="472.07" y="86.87" width="5.88" height="12.39" style="fill: rgb(255, 255, 255); transform-origin: 475.01px 93.065px;" id="el67ba2rckzee" class="animable"></rect><rect x="484.42" y="86.87" width="5.88" height="12.39" style="fill: rgb(255, 255, 255); transform-origin: 487.36px 93.065px;" id="elmcm20rkcw3" class="animable"></rect><rect x="496.77" y="86.87" width="5.88" height="12.39" style="fill: rgb(255, 255, 255); transform-origin: 499.71px 93.065px;" id="eljpxssbt3id" class="animable"></rect><rect x="472.07" y="104.2" width="5.88" height="12.39" style="fill: rgb(255, 255, 255); transform-origin: 475.01px 110.395px;" id="eleqxhkkch0z" class="animable"></rect><rect x="484.42" y="104.2" width="5.88" height="12.39" style="fill: rgb(255, 255, 255); transform-origin: 487.36px 110.395px;" id="elhyq2uuhe42k" class="animable"></rect><rect x="496.77" y="104.2" width="5.88" height="12.39" style="fill: rgb(255, 255, 255); transform-origin: 499.71px 110.395px;" id="elzmddntuqeir" class="animable"></rect><rect x="472.07" y="121.54" width="5.88" height="12.39" style="fill: rgb(255, 255, 255); transform-origin: 475.01px 127.735px;" id="elp9e0pvovf" class="animable"></rect><rect x="484.42" y="121.54" width="5.88" height="12.39" style="fill: rgb(255, 255, 255); transform-origin: 487.36px 127.735px;" id="el2l4qt062rzk" class="animable"></rect><rect x="496.77" y="121.54" width="5.88" height="12.39" style="fill: rgb(255, 255, 255); transform-origin: 499.71px 127.735px;" id="elgfa298fxhy5" class="animable"></rect><rect x="472.07" y="138.87" width="5.88" height="12.39" style="fill: rgb(255, 255, 255); transform-origin: 475.01px 145.065px;" id="elqtpmrzz9tgk" class="animable"></rect><rect x="484.42" y="138.87" width="5.88" height="12.39" style="fill: rgb(255, 255, 255); transform-origin: 487.36px 145.065px;" id="el4tn8lqv0y6b" class="animable"></rect><rect x="496.77" y="138.87" width="5.88" height="12.39" style="fill: rgb(255, 255, 255); transform-origin: 499.71px 145.065px;" id="elr3rekin0s6" class="animable"></rect><rect x="472.07" y="156.2" width="5.88" height="12.39" style="fill: rgb(255, 255, 255); transform-origin: 475.01px 162.395px;" id="eltaq2ykl1ytl" class="animable"></rect><rect x="484.42" y="156.2" width="5.88" height="12.39" style="fill: rgb(255, 255, 255); transform-origin: 487.36px 162.395px;" id="elryy51vo70w" class="animable"></rect><rect x="496.77" y="156.2" width="5.88" height="12.39" style="fill: rgb(255, 255, 255); transform-origin: 499.71px 162.395px;" id="elv0ym1vl3ym" class="animable"></rect><rect x="472.07" y="173.54" width="5.88" height="12.39" style="fill: rgb(255, 255, 255); transform-origin: 475.01px 179.735px;" id="elelqkl1g3vro" class="animable"></rect><rect x="484.42" y="173.54" width="5.88" height="12.39" style="fill: rgb(255, 255, 255); transform-origin: 487.36px 179.735px;" id="elaa4s816evqw" class="animable"></rect><rect x="496.77" y="173.54" width="5.88" height="12.39" style="fill: rgb(255, 255, 255); transform-origin: 499.71px 179.735px;" id="elymd9mdtynlo" class="animable"></rect><rect x="472.07" y="190.87" width="5.88" height="12.39" style="fill: rgb(255, 255, 255); transform-origin: 475.01px 197.065px;" id="el45ef3ypdket" class="animable"></rect><rect x="484.42" y="190.87" width="5.88" height="12.39" style="fill: rgb(255, 255, 255); transform-origin: 487.36px 197.065px;" id="elamwdf402xw" class="animable"></rect><rect x="496.77" y="190.87" width="5.88" height="12.39" style="fill: rgb(255, 255, 255); transform-origin: 499.71px 197.065px;" id="eltjt2p8g88oc" class="animable"></rect><rect x="472.07" y="208.2" width="5.88" height="12.39" style="fill: rgb(255, 255, 255); transform-origin: 475.01px 214.395px;" id="el87perpi82ms" class="animable"></rect><rect x="484.42" y="208.2" width="5.88" height="12.39" style="fill: rgb(255, 255, 255); transform-origin: 487.36px 214.395px;" id="el4o5k5iz666j" class="animable"></rect><rect x="496.77" y="208.2" width="5.88" height="12.39" style="fill: rgb(255, 255, 255); transform-origin: 499.71px 214.395px;" id="elkev62yruuie" class="animable"></rect><rect x="472.07" y="225.54" width="5.88" height="12.39" style="fill: rgb(255, 255, 255); transform-origin: 475.01px 231.735px;" id="elf2tg821tcam" class="animable"></rect><rect x="484.42" y="225.54" width="5.88" height="12.39" style="fill: rgb(255, 255, 255); transform-origin: 487.36px 231.735px;" id="el7p8vmaks8wx" class="animable"></rect><rect x="496.77" y="225.54" width="5.88" height="12.39" style="fill: rgb(255, 255, 255); transform-origin: 499.71px 231.735px;" id="el7jbvw4r26p2" class="animable"></rect><rect x="472.07" y="242.87" width="5.88" height="12.39" style="fill: rgb(255, 255, 255); transform-origin: 475.01px 249.065px;" id="elv1z9r9lbvfc" class="animable"></rect><rect x="484.42" y="242.87" width="5.88" height="12.39" style="fill: rgb(255, 255, 255); transform-origin: 487.36px 249.065px;" id="elaq3pi8nelbj" class="animable"></rect><rect x="496.77" y="242.87" width="5.88" height="12.39" style="fill: rgb(255, 255, 255); transform-origin: 499.71px 249.065px;" id="eld7p3at5f1wo" class="animable"></rect><rect x="472.07" y="260.21" width="5.88" height="12.39" style="fill: rgb(255, 255, 255); transform-origin: 475.01px 266.405px;" id="elz923sw29gpp" class="animable"></rect><rect x="484.42" y="260.21" width="5.88" height="12.39" style="fill: rgb(255, 255, 255); transform-origin: 487.36px 266.405px;" id="el7b2sv4d9qap" class="animable"></rect><rect x="496.77" y="260.21" width="5.88" height="12.39" style="fill: rgb(255, 255, 255); transform-origin: 499.71px 266.405px;" id="el2stny4vh6i4" class="animable"></rect><rect x="472.07" y="277.54" width="5.88" height="12.39" style="fill: rgb(255, 255, 255); transform-origin: 475.01px 283.735px;" id="elgdbjw5frdtl" class="animable"></rect><rect x="484.42" y="277.54" width="5.88" height="12.39" style="fill: rgb(255, 255, 255); transform-origin: 487.36px 283.735px;" id="elcqbckvu7cbi" class="animable"></rect><rect x="496.77" y="277.54" width="5.88" height="12.39" style="fill: rgb(255, 255, 255); transform-origin: 499.71px 283.735px;" id="elk9s8p1p15rf" class="animable"></rect><rect x="472.07" y="293.92" width="5.88" height="12.39" style="fill: rgb(255, 255, 255); transform-origin: 475.01px 300.115px;" id="elxtcf9uz6tf" class="animable"></rect><rect x="484.42" y="293.92" width="5.88" height="12.39" style="fill: rgb(255, 255, 255); transform-origin: 487.36px 300.115px;" id="elh3b1fj49nii" class="animable"></rect><rect x="496.77" y="293.92" width="5.88" height="12.39" style="fill: rgb(255, 255, 255); transform-origin: 499.71px 300.115px;" id="elrf8vjm7yjh" class="animable"></rect><rect x="514.53" y="86.87" width="5.88" height="12.39" style="fill: rgb(235, 235, 235); transform-origin: 517.47px 93.065px;" id="el9j5z0d21wlu" class="animable"></rect><rect x="526.88" y="86.87" width="5.88" height="12.39" style="fill: rgb(235, 235, 235); transform-origin: 529.82px 93.065px;" id="ellboqd97f0l" class="animable"></rect><rect x="514.53" y="104.2" width="5.88" height="12.39" style="fill: rgb(235, 235, 235); transform-origin: 517.47px 110.395px;" id="elgyexsno1uzh" class="animable"></rect><rect x="526.88" y="104.2" width="5.88" height="12.39" style="fill: rgb(235, 235, 235); transform-origin: 529.82px 110.395px;" id="eldsfmrfzr57d" class="animable"></rect><rect x="514.53" y="121.54" width="5.88" height="12.39" style="fill: rgb(235, 235, 235); transform-origin: 517.47px 127.735px;" id="elpa8mut0ktu" class="animable"></rect><rect x="526.88" y="121.54" width="5.88" height="12.39" style="fill: rgb(235, 235, 235); transform-origin: 529.82px 127.735px;" id="ela3w0mhmum7t" class="animable"></rect><rect x="514.53" y="138.87" width="5.88" height="12.39" style="fill: rgb(235, 235, 235); transform-origin: 517.47px 145.065px;" id="elynmsavv1rbe" class="animable"></rect><rect x="526.88" y="138.87" width="5.88" height="12.39" style="fill: rgb(235, 235, 235); transform-origin: 529.82px 145.065px;" id="elt6uey4w63dc" class="animable"></rect><rect x="514.53" y="156.2" width="5.88" height="12.39" style="fill: rgb(235, 235, 235); transform-origin: 517.47px 162.395px;" id="elql64fctcqh" class="animable"></rect><rect x="526.88" y="156.2" width="5.88" height="12.39" style="fill: rgb(235, 235, 235); transform-origin: 529.82px 162.395px;" id="el4lk5gu2l82o" class="animable"></rect><rect x="514.53" y="173.54" width="5.88" height="12.39" style="fill: rgb(235, 235, 235); transform-origin: 517.47px 179.735px;" id="elctljab2lm4b" class="animable"></rect><rect x="526.88" y="173.54" width="5.88" height="12.39" style="fill: rgb(235, 235, 235); transform-origin: 529.82px 179.735px;" id="elxgv3p8z3c4" class="animable"></rect><rect x="514.53" y="190.87" width="5.88" height="12.39" style="fill: rgb(235, 235, 235); transform-origin: 517.47px 197.065px;" id="eljao7o7noceg" class="animable"></rect><rect x="526.88" y="190.87" width="5.88" height="12.39" style="fill: rgb(235, 235, 235); transform-origin: 529.82px 197.065px;" id="elqwflyi4hu3" class="animable"></rect><rect x="514.53" y="208.2" width="5.88" height="12.39" style="fill: rgb(235, 235, 235); transform-origin: 517.47px 214.395px;" id="elfa0dfq0manh" class="animable"></rect><rect x="526.88" y="208.2" width="5.88" height="12.39" style="fill: rgb(235, 235, 235); transform-origin: 529.82px 214.395px;" id="elwxo7djhwr2g" class="animable"></rect><rect x="514.53" y="225.54" width="5.88" height="12.39" style="fill: rgb(235, 235, 235); transform-origin: 517.47px 231.735px;" id="eltwgi5jprx7q" class="animable"></rect><rect x="526.88" y="225.54" width="5.88" height="12.39" style="fill: rgb(235, 235, 235); transform-origin: 529.82px 231.735px;" id="elyeod60jgwv8" class="animable"></rect><rect x="514.53" y="242.87" width="5.88" height="12.39" style="fill: rgb(235, 235, 235); transform-origin: 517.47px 249.065px;" id="elzfiu1g8su6" class="animable"></rect><rect x="526.88" y="242.87" width="5.88" height="12.39" style="fill: rgb(235, 235, 235); transform-origin: 529.82px 249.065px;" id="elvfm2h2dve4" class="animable"></rect><rect x="514.53" y="260.21" width="5.88" height="12.39" style="fill: rgb(235, 235, 235); transform-origin: 517.47px 266.405px;" id="elsqqyi402qjo" class="animable"></rect><rect x="526.88" y="260.21" width="5.88" height="12.39" style="fill: rgb(235, 235, 235); transform-origin: 529.82px 266.405px;" id="elov2tg7dfamh" class="animable"></rect><rect x="514.53" y="277.54" width="5.88" height="12.39" style="fill: rgb(235, 235, 235); transform-origin: 517.47px 283.735px;" id="elbjeeosgvry" class="animable"></rect><rect x="526.88" y="277.54" width="5.88" height="12.39" style="fill: rgb(235, 235, 235); transform-origin: 529.82px 283.735px;" id="el5bqu8h79pau" class="animable"></rect><rect x="514.53" y="293.92" width="5.88" height="12.39" style="fill: rgb(235, 235, 235); transform-origin: 517.47px 300.115px;" id="ele7atlieactg" class="animable"></rect><rect x="526.88" y="293.92" width="5.88" height="12.39" style="fill: rgb(235, 235, 235); transform-origin: 529.82px 300.115px;" id="el9xy8u08fquf" class="animable"></rect><path d="M591.62,133.23c.26,0,.48,5.56.48,12.41s-.22,12.4-.48,12.4-.49-5.55-.49-12.4S591.35,133.23,591.62,133.23Z" style="fill: rgb(224, 224, 224); transform-origin: 591.615px 145.635px;" id="elbbr13zes7yf" class="animable"></path><polygon points="616.29 159.97 547.1 179.61 547.1 312.67 616.29 312.67 616.29 159.97" style="fill: rgb(224, 224, 224); transform-origin: 581.695px 236.32px;" id="el215yd7jp8jdj" class="animable"></polygon><polygon points="557.48 176.59 557.48 153 600.07 153 600.07 164.5 557.48 176.59" style="fill: rgb(224, 224, 224); transform-origin: 578.775px 164.795px;" id="elvw0tg019dq" class="animable"></polygon><polygon points="552.37 180.94 552.92 303.29 609.2 303.29 609.2 164.79 552.37 180.94" style="fill: rgb(255, 255, 255); transform-origin: 580.785px 234.04px;" id="el22hqnxkwjbo" class="animable"></polygon><path d="M567.59,306.07c-.27,0-.48-29.36-.48-65.57s.21-65.57.48-65.57.48,29.35.48,65.57S567.86,306.07,567.59,306.07Z" style="fill: rgb(224, 224, 224); transform-origin: 567.59px 240.5px;" id="elfkx50k8u35v" class="animable"></path><path d="M591.25,306.07c-.27,0-.49-31-.49-69.22s.22-69.23.49-69.23.48,31,.48,69.23S591.51,306.07,591.25,306.07Z" style="fill: rgb(224, 224, 224); transform-origin: 591.245px 236.845px;" id="eletso9t98ugd" class="animable"></path><path d="M613.09,199.61c0,.27-14,.49-31.3.49s-31.31-.22-31.31-.49,14-.48,31.31-.48S613.09,199.35,613.09,199.61Z" style="fill: rgb(224, 224, 224); transform-origin: 581.785px 199.615px;" id="el7cah5tvxehb" class="animable"></path><path d="M612.5,237.06c0,.26-14,.48-31.3.48s-31.3-.22-31.3-.48,14-.49,31.3-.49S612.5,236.79,612.5,237.06Z" style="fill: rgb(224, 224, 224); transform-origin: 581.2px 237.055px;" id="el2d2g7g8pnpc" class="animable"></path><path d="M616,274.79c0,.27-14.54.49-32.47.49s-32.47-.22-32.47-.49,14.54-.48,32.47-.48S616,274.52,616,274.79Z" style="fill: rgb(224, 224, 224); transform-origin: 583.53px 274.795px;" id="elw0ns15x09t" class="animable"></path><path d="M616,160c.07.26-15.24,4.83-34.2,10.21s-34.4,9.54-34.47,9.28,15.24-4.83,34.2-10.21S616,159.72,616,160Z" style="fill: rgb(224, 224, 224); transform-origin: 581.665px 169.744px;" id="elfoo9bltt1mg" class="animable"></path><path d="M570.75,227.58c-.19-.19,3.22-3.9,7.6-8.29s8.1-7.79,8.29-7.6-3.22,3.9-7.6,8.29S570.94,227.77,570.75,227.58Z" style="fill: rgb(224, 224, 224); transform-origin: 578.695px 219.635px;" id="elqjxj5ewhxtm" class="animable"></path><path d="M581.33,212.52c.18.19-1,1.65-2.74,3.27s-3.22,2.76-3.4,2.57,1-1.66,2.74-3.27S581.15,212.32,581.33,212.52Z" style="fill: rgb(224, 224, 224); transform-origin: 578.26px 215.439px;" id="elbduckydrqr4" class="animable"></path><path d="M585.23,254.88c.19.18-2.71,3.45-6.49,7.29s-7,6.81-7.18,6.62,2.72-3.45,6.49-7.29S585,254.69,585.23,254.88Z" style="fill: rgb(224, 224, 224); transform-origin: 578.395px 261.835px;" id="eliacgt56u7d" class="animable"></path><path d="M579.92,256.53c.2.18-.77,1.57-2.15,3.11s-2.68,2.64-2.88,2.46.77-1.57,2.16-3.11S579.72,256.35,579.92,256.53Z" style="fill: rgb(224, 224, 224); transform-origin: 577.405px 259.315px;" id="el5cpzhxu4a6v" class="animable"></path><path d="M603.82,181c.2.17-1.24,2.2-3.22,4.52s-3.76,4.06-4,3.89,1.24-2.2,3.22-4.52S603.62,180.79,603.82,181Z" style="fill: rgb(224, 224, 224); transform-origin: 600.207px 185.202px;" id="elw6wfuku2e6s" class="animable"></path><path d="M602.21,178.5c.2.18-.83,1.64-2.29,3.25s-2.81,2.78-3,2.6.83-1.63,2.29-3.25S602,178.32,602.21,178.5Z" style="fill: rgb(224, 224, 224); transform-origin: 599.566px 181.425px;" id="el4eq2l1yboj" class="animable"></path><path d="M562.39,288.05c.22.15-.66,1.78-2,3.62s-2.55,3.22-2.76,3.07.66-1.78,2-3.63S562.18,287.89,562.39,288.05Z" style="fill: rgb(224, 224, 224); transform-origin: 560.011px 291.394px;" id="elqtzknzy8ri" class="animable"></path><path d="M560.72,285.82c.2.18-.58,1.33-1.74,2.56s-2.24,2.08-2.44,1.9.58-1.33,1.74-2.56S560.53,285.64,560.72,285.82Z" style="fill: rgb(224, 224, 224); transform-origin: 558.63px 288.05px;" id="elr94sfb6r0m" class="animable"></path><g id="el7j8ibyh4zn8"><rect x="151.82" y="285.08" width="8.04" height="27.62" style="fill: rgb(235, 235, 235); transform-origin: 155.84px 298.89px; transform: rotate(180deg);" class="animable" id="elf64albfbvvu"></rect></g><path d="M189.24,285.92s-.4-.26.47-1.4a1.1,1.1,0,0,0-.47-1.75c-3.8,2.19-9.1,0-9.1,0s6.25-1.93,7-3.77c.59-1.38-.45-1.53-1-1.52.63-.07,2-.29,2.44-1,.55-1-1.62-2.1-1.62-2.1a1.72,1.72,0,0,0,0-1.49c-.36-1-8.51-2.37-8.51-2.37a3.23,3.23,0,0,0,3.24-2.1s4,.08,5-1.49-.63-2-3.32-3.34-8.63-6.22-8.63-6.22,3.72-.35,4.75-1.23.08-1.05.08-1.05c4.43.44,2.93-1.93,2.93-1.93a19.75,19.75,0,0,1-9.1-5.88,10.89,10.89,0,0,0,4.19-1.92c1.42-1.32-1.19-1.67-1.19-1.67s5.23-.7,2.22-2.63c-2.29-1.47-5.94-3.44-7.08-4,1.25.46,4.07-.09,4.07-.09,3.33-1.49,0-3.68,0-3.68-3.87-2.2-9.57-7.72-9.57-7.72s2.85,1.49,4.27,1.05-1.58-2.19-1.58-2.19,1.5.44,2.14,0-1.67-2.46-1.67-2.46c-3.41-2.21-7.61-8-9.37-10.53-1.76,2.5-6,8.32-9.37,10.53,0,0-2.29,2-1.66,2.46s2.13,0,2.13,0-3,1.75-1.58,2.19,4.27-1.05,4.27-1.05-5.69,5.52-9.57,7.72c0,0-3.32,2.19,0,3.68,0,0,2.83.55,4.07.09-1.13.59-4.79,2.56-7.07,4-3,1.93,2.21,2.63,2.21,2.63s-2.61.35-1.19,1.67a11,11,0,0,0,4.2,1.92,19.82,19.82,0,0,1-9.1,5.88s-1.5,2.37,2.93,1.93c0,0-1,.17.07,1.05s4.75,1.23,4.75,1.23-5.93,4.91-8.62,6.22-4.27,1.76-3.32,3.34,5,1.49,5,1.49a3.23,3.23,0,0,0,3.24,2.1s-8.15,1.4-8.5,2.37a1.68,1.68,0,0,0,0,1.49s-2.18,1.14-1.62,2.1c.42.74,1.8,1,2.44,1-.57,0-1.61.14-1,1.52.79,1.84,7,3.77,7,3.77s-5.3,2.19-9.1,0a1.1,1.1,0,0,0-.47,1.75c.87,1.14.47,1.4.47,1.4s-2-1.49-1.1.79,5.46,3.68,5.46,3.68-2.62.44-1.82,1.85,4.11,3.06,7.75,3.42a29.47,29.47,0,0,0,8.54-1s-3.32,1.75-1,2.72,4.91-1.23,4.91-1.23-.48,2.25,1.42,1.47a12.89,12.89,0,0,0,3.48-2.26s.6,3.31,1.78,2.52c1.19.79,1.78-2.52,1.78-2.52a12.89,12.89,0,0,0,3.48,2.26c1.9.78,1.43-1.47,1.43-1.47s2.61,2.19,4.9,1.23-1-2.72-1-2.72a29.56,29.56,0,0,0,8.55,1c3.63-.36,7-2,7.75-3.42s-1.82-1.85-1.82-1.85,4.59-1.4,5.46-3.68S189.24,285.92,189.24,285.92Z" style="fill: rgb(245, 245, 245); transform-origin: 159.857px 254.721px;" id="elmtfh6afrgx" class="animable"></path><path d="M168.48,232.56l-.13-.06A.31.31,0,0,1,168.48,232.56Z" id="elfbt6zs6o4ch" class="animable" style="transform-origin: 168.415px 232.53px;"></path><g id="elue3qastl08"><rect x="229.84" y="292.67" width="5.83" height="20.03" style="fill: rgb(235, 235, 235); transform-origin: 232.755px 302.685px; transform: rotate(180deg);" class="animable" id="elzr13oazridd"></rect></g><path d="M257,293.28s-.29-.19.34-1A.8.8,0,0,0,257,291c-2.76,1.59-6.6,0-6.6,0s4.53-1.4,5.11-2.74c.42-1-.33-1.1-.74-1.1.46,0,1.46-.21,1.77-.74.4-.7-1.18-1.53-1.18-1.53a1.22,1.22,0,0,0,0-1.08c-.25-.7-6.17-1.71-6.17-1.71a2.35,2.35,0,0,0,2.36-1.53s2.92.06,3.61-1.08-.46-1.46-2.41-2.42a51.18,51.18,0,0,1-6.25-4.51s2.69-.26,3.44-.89.06-.77.06-.77c3.21.32,2.12-1.4,2.12-1.4a14.36,14.36,0,0,1-6.6-4.26,7.8,7.8,0,0,0,3-1.4c1-.95-.86-1.2-.86-1.2s3.79-.51,1.61-1.91c-1.66-1.07-4.31-2.5-5.13-2.93a7.76,7.76,0,0,0,3-.06c2.41-1.08,0-2.67,0-2.67a46.79,46.79,0,0,1-6.94-5.6s2.06,1.08,3.09.76-1.14-1.59-1.14-1.59,1.09.32,1.55,0-1.21-1.78-1.21-1.78c-2.47-1.6-5.52-5.82-6.8-7.63-1.27,1.81-4.32,6-6.79,7.63,0,0-1.67,1.47-1.21,1.78s1.55,0,1.55,0-2.18,1.28-1.15,1.59,3.1-.76,3.1-.76a46.79,46.79,0,0,1-6.94,5.6s-2.41,1.59,0,2.67a7.76,7.76,0,0,0,2.95.06c-.82.43-3.48,1.86-5.13,2.93-2.18,1.4,1.6,1.91,1.6,1.91s-1.89.25-.86,1.2a7.87,7.87,0,0,0,3,1.4,14.29,14.29,0,0,1-6.59,4.26s-1.09,1.72,2.12,1.4c0,0-.69.13.06.77s3.44.89,3.44.89a50.7,50.7,0,0,1-6.26,4.51c-2,1-3.09,1.27-2.41,2.42s3.62,1.08,3.62,1.08a2.34,2.34,0,0,0,2.35,1.53s-5.91,1-6.17,1.71a1.26,1.26,0,0,0,0,1.08s-1.57.83-1.17,1.53c.3.53,1.31.7,1.77.74-.41,0-1.17.11-.74,1.1.57,1.34,5.11,2.74,5.11,2.74s-3.85,1.59-6.6,0a.8.8,0,0,0-.35,1.27c.64.83.35,1,.35,1s-1.44-1.08-.8.57,3.95,2.67,3.95,2.67-1.89.32-1.32,1.34,3,2.22,5.63,2.48a21.54,21.54,0,0,0,6.19-.7s-2.41,1.27-.74,2,3.56-.89,3.56-.89-.35,1.63,1,1.07a9.29,9.29,0,0,0,2.52-1.64s.43,2.4,1.29,1.82c.86.58,1.29-1.82,1.29-1.82a9.43,9.43,0,0,0,2.53,1.64c1.38.56,1-1.07,1-1.07s1.89,1.59,3.56.89-.75-2-.75-2a21.63,21.63,0,0,0,6.2.7c2.64-.26,5-1.47,5.62-2.48s-1.32-1.34-1.32-1.34,3.33-1,4-2.67S257,293.28,257,293.28Z" style="fill: rgb(245, 245, 245); transform-origin: 235.653px 270.655px;" id="elppalbwdpu1a" class="animable"></path><path d="M241.92,254.57l-.09,0Z" id="el2aixxgyo58c" class="animable" style="transform-origin: 241.875px 254.57px;"></path><g id="elnrpw8otsbb8"><rect x="193.14" y="275.27" width="10.89" height="37.43" style="fill: rgb(235, 235, 235); transform-origin: 198.585px 293.985px; transform: rotate(180deg);" class="animable" id="el43jqzdz0mcl"></rect></g><path d="M239.87,275.15s-.53-.36.65-1.9a1.5,1.5,0,0,0-.65-2.38c-5.14,3-12.32,0-12.32,0s8.46-2.61,9.54-5.11c.8-1.86-.62-2.07-1.38-2.05.86-.09,2.73-.4,3.3-1.39.75-1.31-2.19-2.85-2.19-2.85a2.32,2.32,0,0,0,0-2c-.48-1.31-11.53-3.21-11.53-3.21,3.22.36,4.4-2.85,4.4-2.85s5.47.12,6.75-2-.86-2.73-4.5-4.52-11.68-8.43-11.68-8.43,5-.48,6.43-1.67.1-1.42.1-1.42c6,.59,4-2.61,4-2.61a26.88,26.88,0,0,1-12.33-8s3.76-.83,5.68-2.61-1.6-2.26-1.6-2.26,7.07-.95,3-3.56c-3.1-2-8-4.66-9.59-5.46,1.69.62,5.51-.12,5.51-.12,4.51-2,0-5,0-5-5.25-3-13-10.46-13-10.46s3.86,2,5.79,1.43-2.14-3-2.14-3,2,.59,2.89,0-2.25-3.33-2.25-3.33c-4.62-3-10.32-10.88-12.7-14.27-2.38,3.39-8.08,11.27-12.7,14.27,0,0-3.11,2.73-2.25,3.33s2.89,0,2.89,0-4.07,2.37-2.14,3,5.79-1.43,5.79-1.43-7.72,7.49-13,10.46c0,0-4.5,3,0,5,0,0,3.83.74,5.51.12-1.53.8-6.49,3.47-9.58,5.46-4.08,2.61,3,3.56,3,3.56s-3.54.48-1.61,2.26,5.68,2.61,5.68,2.61a26.88,26.88,0,0,1-12.33,8s-2,3.2,4,2.61c0,0-1.29.24.11,1.42s6.43,1.67,6.43,1.67-8,6.65-11.69,8.43-5.78,2.38-4.5,4.52,6.76,2,6.76,2,1.17,3.21,4.39,2.85c0,0-11,1.9-11.52,3.21a2.27,2.27,0,0,0,0,2s-2.95,1.54-2.2,2.85c.57,1,2.44,1.3,3.31,1.39-.77,0-2.18.19-1.38,2.05,1.07,2.5,9.54,5.11,9.54,5.11s-7.18,3-12.33,0a1.5,1.5,0,0,0-.64,2.38c1.18,1.54.64,1.9.64,1.9s-2.68-2-1.5,1.07,7.4,5,7.4,5-3.88.83-2.47,2.49c1.91,2.26,6.48,4.54,10.51,4.64A61.22,61.22,0,0,0,185.74,287s-4.5,2.38-1.39,3.68,6.65-1.66,6.65-1.66-.65,3,1.93,2a17.59,17.59,0,0,0,4.71-3.07s.81,4.48,2.41,3.41c1.61,1.07,2.41-3.41,2.41-3.41a17.73,17.73,0,0,0,4.72,3.07c2.57,1,1.93-2,1.93-2s3.54,3,6.64,1.66-1.39-3.68-1.39-3.68,6.65,1.78,11.58,1.31,9.43-2.74,10.5-4.64-2.46-2.49-2.46-2.49,6.21-1.9,7.39-5S239.87,275.15,239.87,275.15Z" style="fill: rgb(235, 235, 235); transform-origin: 200.05px 232.823px;" id="eltcic0g2fr9p" class="animable"></path><path d="M215.72,204.11l-.17-.08A.44.44,0,0,1,215.72,204.11Z" id="eluxntsq74id" class="animable" style="transform-origin: 215.635px 204.07px;"></path><g id="elsqixjulu28r"><rect x="89.68" y="272.1" width="11.81" height="40.6" style="fill: rgb(235, 235, 235); transform-origin: 95.585px 292.4px; transform: rotate(180deg);" class="animable" id="el7y6uwk1j26d"></rect></g><path d="M140.38,272s-.58-.38.69-2.06a1.63,1.63,0,0,0-.69-2.58c-5.58,3.23-13.38,0-13.38,0s9.19-2.83,10.35-5.54c.87-2-.66-2.24-1.49-2.23.94-.09,3-.43,3.59-1.5.81-1.42-2.39-3.1-2.39-3.1a2.46,2.46,0,0,0,0-2.19c-.52-1.42-12.5-3.48-12.5-3.48,3.49.39,4.77-3.09,4.77-3.09s5.93.13,7.33-2.19-.93-3-4.89-4.9S119.1,230,119.1,230s5.46-.52,7-1.81.12-1.54.12-1.54c6.51.64,4.3-2.84,4.3-2.84a29.16,29.16,0,0,1-13.37-8.63s4.07-.91,6.16-2.84-1.74-2.45-1.74-2.45,7.67-1,3.25-3.86c-3.35-2.16-8.73-5.06-10.4-5.93,1.83.67,6-.13,6-.13,4.88-2.19,0-5.42,0-5.42-5.7-3.22-14.07-11.34-14.07-11.34s4.18,2.19,6.27,1.55-2.32-3.22-2.32-3.22,2.21.64,3.14,0-2.44-3.61-2.44-3.61c-5-3.26-11.2-11.81-13.78-15.48-2.59,3.67-8.77,12.22-13.78,15.48,0,0-3.37,3-2.44,3.61s3.14,0,3.14,0-4.42,2.57-2.33,3.22,6.28-1.55,6.28-1.55S79.68,191.28,74,194.5c0,0-4.88,3.23,0,5.42,0,0,4.16.8,6,.13-1.67.87-7,3.77-10.41,5.93-4.42,2.83,3.26,3.86,3.26,3.86s-3.84.52-1.74,2.45,6.16,2.84,6.16,2.84a29.16,29.16,0,0,1-13.37,8.63s-2.21,3.48,4.3,2.84c0,0-1.4.25.11,1.54s7,1.81,7,1.81-8.72,7.22-12.67,9.15-6.28,2.58-4.89,4.9S65,246.19,65,246.19s1.28,3.48,4.77,3.09c0,0-12,2.06-12.5,3.48a2.46,2.46,0,0,0,0,2.19s-3.2,1.68-2.39,3.1c.62,1.07,2.65,1.41,3.59,1.5-.83,0-2.36.21-1.49,2.23,1.16,2.71,10.34,5.54,10.34,5.54s-7.79,3.23-13.37,0a1.63,1.63,0,0,0-.7,2.58c1.28,1.68.7,2.06.7,2.06s-2.91-2.19-1.63,1.16,8,5.42,8,5.42-4.21.9-2.68,2.7c2.07,2.45,7,4.93,11.4,5a65.63,65.63,0,0,0,12.56-1.42s-4.89,2.58-1.51,4S87.36,287,87.36,287s-.7,3.3,2.09,2.17a19,19,0,0,0,5.12-3.33s.87,4.87,2.61,3.7c1.74,1.17,2.61-3.7,2.61-3.7a19,19,0,0,0,5.12,3.33C107.7,290.34,107,287,107,287s3.84,3.23,7.21,1.81-1.51-4-1.51-4,7.21,1.94,12.56,1.42,10.23-3,11.4-5-2.68-2.7-2.68-2.7,6.75-2.06,8-5.42S140.38,272,140.38,272Z" style="fill: rgb(235, 235, 235); transform-origin: 97.1458px 226.086px;" id="el8i8mh1g6xtk" class="animable"></path><path d="M114.17,194.9l-.18-.09Z" id="elpw618cuty5l" class="animable" style="transform-origin: 114.08px 194.855px;"></path><path d="M246,139c.39-2.81-3.58-5.12-6.56-5.36-1.42-.11-2.89.11-4.24-.36-2.91-1-4.08-4.79-6.92-6-2.13-.89-4.58-.1-6.64.94s-4.1,2.35-6.41,2.49c-2,.13-4.18-.61-5.93.37-1.31.73-2,2.23-3.19,3.12a7.63,7.63,0,0,1-4.18,1.13,11.79,11.79,0,0,0-4.31.71,3.39,3.39,0,0,0-2.15,3.45Z" style="fill: rgb(245, 245, 245); transform-origin: 220.742px 133.192px;" id="el5zpmg5azrwi" class="animable"></path><path d="M96.45,130.71c.39-2.81-3.58-5.12-6.56-5.36-1.42-.12-2.89.1-4.24-.37-2.91-1-4.08-4.78-6.92-6-2.13-.9-4.58-.1-6.64.94s-4.1,2.34-6.41,2.49c-2,.13-4.18-.62-5.93.36-1.31.73-2,2.24-3.2,3.13a7.58,7.58,0,0,1-4.17,1.13,11.78,11.78,0,0,0-4.31.7,3.4,3.4,0,0,0-2.15,3.46Z" style="fill: rgb(245, 245, 245); transform-origin: 71.192px 124.89px;" id="elxturg67204r" class="animable"></path><path d="M645.93,85.76c.38-2.81-3.58-5.12-6.56-5.36-1.42-.12-2.9.1-4.24-.37-2.92-1-4.08-4.78-6.93-6-2.13-.9-4.58-.1-6.64.94s-4.1,2.34-6.4,2.49c-2,.13-4.18-.62-5.93.36-1.31.73-2,2.24-3.2,3.13a7.7,7.7,0,0,1-4.18,1.13,11.73,11.73,0,0,0-4.3.7,3.42,3.42,0,0,0-2.16,3.46Z" style="fill: rgb(245, 245, 245); transform-origin: 620.667px 79.9397px;" id="elllqhhonwy6" class="animable"></path><path d="M189.28,83.06c.63-4.56-5.79-8.3-10.62-8.69-2.3-.18-4.69.17-6.87-.59-4.73-1.65-6.62-7.75-11.23-9.7-3.44-1.45-7.41-.16-10.75,1.53s-6.64,3.79-10.38,4c-3.24.21-6.77-1-9.61.59-2.12,1.18-3.23,3.62-5.18,5.06s-4.4,1.71-6.76,1.84-4.82.15-7,1.14-3.94,3.26-3.49,5.59Z" style="fill: rgb(245, 245, 245); transform-origin: 148.321px 73.6408px;" id="elxplm9c7yrxj" class="animable"></path><path d="M371.28,82.15c.63-4.55-5.8-8.29-10.62-8.68-2.31-.19-4.7.17-6.88-.59-4.72-1.65-6.61-7.75-11.22-9.7-3.44-1.45-7.41-.16-10.75,1.52s-6.65,3.8-10.38,4c-3.25.21-6.77-1-9.61.59-2.12,1.18-3.23,3.62-5.18,5.06s-4.4,1.71-6.77,1.83-4.82.16-7,1.14S289,80.63,289.4,83Z" style="fill: rgb(245, 245, 245); transform-origin: 330.332px 72.7756px;" id="eltid4f3ll89s" class="animable"></path><polygon points="213.68 431.6 29.23 431.6 42.29 423.95 226.74 423.95 213.68 431.6" style="fill: rgb(245, 245, 245); transform-origin: 127.985px 427.775px;" id="elzuulmevxk8i" class="animable"></polygon><polygon points="473.59 431.6 289.14 431.6 302.21 423.95 486.66 423.95 473.59 431.6" style="fill: rgb(245, 245, 245); transform-origin: 387.9px 427.775px;" id="el8hoouer7dfl" class="animable"></polygon><polygon points="710.77 431.6 526.32 431.6 539.38 423.95 723.83 423.95 710.77 431.6" style="fill: rgb(245, 245, 245); transform-origin: 625.075px 427.775px;" id="eliz530qedtdl" class="animable"></polygon></g><g id="freepik--Floor--inject-69" class="animable" style="transform-origin: 375px 313.8px;"><path d="M731.79,313.8c0,.14-159.75.26-356.77.26s-356.81-.12-356.81-.26,159.72-.26,356.81-.26S731.79,313.66,731.79,313.8Z" style="fill: rgb(38, 50, 56); transform-origin: 375px 313.8px;" id="elg2pvaay3zc" class="animable"></path></g><g id="freepik--Lines--inject-69" class="animable" style="transform-origin: 366.781px 258.986px;"><path d="M414.38,177.18a20.33,20.33,0,0,1-1.6-1.38,36.22,36.22,0,0,0-4.61-3.39,34.36,34.36,0,0,0-35.83-.54,35.55,35.55,0,0,0-4.71,3.24,19.28,19.28,0,0,1-1.63,1.33,2.25,2.25,0,0,1,.36-.4c.26-.25.62-.64,1.14-1.08a31.8,31.8,0,0,1,4.65-3.41,33.89,33.89,0,0,1,36.22.55,30.42,30.42,0,0,1,4.55,3.55c.5.45.85.85,1.1,1.11A1.93,1.93,0,0,1,414.38,177.18Z" style="fill: rgb(38, 50, 56); transform-origin: 390.19px 171.878px;" id="elqi94bdoy0ys" class="animable"></path><path d="M434.31,158.59s-.08,0-.2-.15l-.54-.49c-.49-.42-1.14-1.12-2.08-1.9a63.33,63.33,0,0,0-8.26-6.16,66.79,66.79,0,0,0-6.23-3.44,68.54,68.54,0,0,0-7.57-3,60.42,60.42,0,0,0-36.83-.55,65.77,65.77,0,0,0-7.67,2.81,67.21,67.21,0,0,0-6.32,3.25,62.57,62.57,0,0,0-8.45,5.91c-1,.75-1.63,1.42-2.13,1.83l-.56.48-.2.15s.05-.07.16-.19l.53-.52c.47-.43,1.12-1.13,2.07-1.9a57.11,57.11,0,0,1,8.39-6.07,62.87,62.87,0,0,1,6.34-3.33,63.8,63.8,0,0,1,7.7-2.88,60.06,60.06,0,0,1,37.12.56,65.5,65.5,0,0,1,7.61,3.11,67.79,67.79,0,0,1,6.24,3.52,59.34,59.34,0,0,1,8.2,6.32c.92.81,1.55,1.53,2,2,.2.22.37.39.51.53A2.28,2.28,0,0,1,434.31,158.59Z" style="fill: rgb(38, 50, 56); transform-origin: 390.79px 149.182px;" id="elfr2fuik91mv" class="animable"></path><path d="M451.6,140s-.1-.07-.27-.22l-.75-.69c-.67-.6-1.58-1.57-2.89-2.67a87,87,0,0,0-11.53-8.64,87.53,87.53,0,0,0-19.3-9.09,84.35,84.35,0,0,0-51.52-.78,86.73,86.73,0,0,0-19.56,8.5A87.86,87.86,0,0,0,334,134.69c-1.34,1.06-2.28,2-3,2.57l-.77.67a1.82,1.82,0,0,1-.27.22s.07-.09.24-.25.42-.42.73-.71c.67-.6,1.58-1.57,2.91-2.66a81.92,81.92,0,0,1,11.73-8.44,85.69,85.69,0,0,1,19.61-8.65,84.09,84.09,0,0,1,51.81.78,92.18,92.18,0,0,1,10.63,4.34,90.58,90.58,0,0,1,8.71,4.9,82.27,82.27,0,0,1,11.48,8.8c1.29,1.13,2.17,2.12,2.82,2.74l.72.73C451.53,139.9,451.6,140,451.6,140Z" style="fill: rgb(38, 50, 56); transform-origin: 390.78px 126.865px;" id="elcj1b7jho49p" class="animable"></path><path d="M80.05,328.13s-.42.5-1.17,1.38a29.48,29.48,0,0,0-2.9,4,29.54,29.54,0,0,0-.47,30.71,31.6,31.6,0,0,0,2.78,4,17.14,17.14,0,0,1,1.13,1.41,1.55,1.55,0,0,1-.36-.31c-.21-.22-.55-.52-.93-1a27,27,0,0,1-2.93-4,29,29,0,0,1,.47-31.1,27.42,27.42,0,0,1,3-3.9c.4-.43.74-.73,1-.94S80,328.12,80.05,328.13Z" style="fill: rgb(38, 50, 56); transform-origin: 75.4798px 348.879px;" id="elqyes7050fsm" class="animable"></path><path d="M64.11,311a6.57,6.57,0,0,1-.55.64c-.36.41-1,1-1.62,1.78a53.77,53.77,0,0,0-1.06,69.75c.64.82,1.22,1.4,1.57,1.83a4.83,4.83,0,0,1,.53.66,4.17,4.17,0,0,1-.61-.59c-.37-.4-1-1-1.64-1.77a49.87,49.87,0,0,1-5.22-7.19,52.67,52.67,0,0,1,.85-55.79,49.74,49.74,0,0,1,5.43-7c.69-.78,1.31-1.32,1.69-1.72A4.49,4.49,0,0,1,64.11,311Z" style="fill: rgb(38, 50, 56); transform-origin: 56.0222px 348.33px;" id="el9lfduix5nd6" class="animable"></path><path d="M48.15,296.2s-.06.09-.19.23l-.59.65c-.51.58-1.34,1.36-2.28,2.48a74.85,74.85,0,0,0-7.4,9.9,80.57,80.57,0,0,0-4.13,7.47A79.09,79.09,0,0,0,29.9,326a72.52,72.52,0,0,0-.67,44.17,80.34,80.34,0,0,0,3.38,9.19A79.54,79.54,0,0,0,36.52,387a74.4,74.4,0,0,0,7.09,10.12c.91,1.15,1.71,1.95,2.2,2.55l.58.66c.12.15.19.23.18.24s-.08-.06-.22-.2l-.61-.63c-.52-.57-1.35-1.35-2.28-2.49a69.85,69.85,0,0,1-7.26-10.06,73.95,73.95,0,0,1-7.43-16.83,72.25,72.25,0,0,1,.67-44.46,74.14,74.14,0,0,1,7.94-16.6,71.12,71.12,0,0,1,7.56-9.84c1-1.1,1.82-1.86,2.35-2.41l.63-.61Z" style="fill: rgb(38, 50, 56); transform-origin: 36.8707px 348.385px;" id="el7thlf3oyao6" class="animable"></path><path d="M644.57,367s.49-.57,1.38-1.59a36.32,36.32,0,0,0,3.38-4.61,34.41,34.41,0,0,0,.55-35.84,36.19,36.19,0,0,0-3.25-4.7c-.86-1-1.36-1.61-1.33-1.64a3,3,0,0,1,.41.37c.24.26.64.61,1.07,1.14a30.55,30.55,0,0,1,3.41,4.65,33.82,33.82,0,0,1-.55,36.21,31.16,31.16,0,0,1-3.54,4.55c-.46.51-.86.85-1.12,1.11A2.65,2.65,0,0,1,644.57,367Z" style="fill: rgb(38, 50, 56); transform-origin: 649.872px 342.81px;" id="ela05dojhmzgk" class="animable"></path><path d="M663.15,387s0-.07.15-.2.3-.32.49-.54c.43-.48,1.12-1.14,1.9-2.07a63.46,63.46,0,0,0,12.65-22.07,60.52,60.52,0,0,0,.56-36.83,67.44,67.44,0,0,0-2.82-7.66,66.23,66.23,0,0,0-3.25-6.33,63,63,0,0,0-5.91-8.45c-.75-1-1.42-1.63-1.83-2.13l-.47-.55q-.17-.19-.15-.21a1.73,1.73,0,0,1,.19.17l.51.52c.43.48,1.13,1.13,1.91,2.07a57.94,57.94,0,0,1,6.06,8.39,63.94,63.94,0,0,1,3.34,6.34,67.36,67.36,0,0,1,2.88,7.7,60.16,60.16,0,0,1-.57,37.12,64.78,64.78,0,0,1-3.11,7.61,65.54,65.54,0,0,1-3.52,6.24,58,58,0,0,1-6.32,8.2c-.81.92-1.52,1.55-2,2l-.53.51Z" style="fill: rgb(38, 50, 56); transform-origin: 672.584px 343.48px;" id="elybuve3mzta8" class="animable"></path><path d="M681.75,404.24A2.86,2.86,0,0,1,682,404l.7-.75c.59-.67,1.56-1.58,2.66-2.88A86.59,86.59,0,0,0,694,388.8a91.8,91.8,0,0,0,4.83-8.7,94.89,94.89,0,0,0,4.27-10.59,84.55,84.55,0,0,0,.78-51.52,92.06,92.06,0,0,0-4-10.72,94.1,94.1,0,0,0-4.56-8.85,86.06,86.06,0,0,0-8.29-11.79c-1-1.34-2-2.27-2.57-3l-.67-.77a2.53,2.53,0,0,1-.22-.28s.1.08.26.24l.71.74c.6.66,1.57,1.58,2.65,2.9a82.12,82.12,0,0,1,8.44,11.74,89.24,89.24,0,0,1,4.64,8.85,92,92,0,0,1,4,10.76,84.19,84.19,0,0,1-.79,51.81A86.08,86.08,0,0,1,694.28,389a81.91,81.91,0,0,1-8.8,11.47c-1.12,1.29-2.12,2.18-2.74,2.83L682,404C681.84,404.17,681.76,404.25,681.75,404.24Z" style="fill: rgb(38, 50, 56); transform-origin: 694.86px 343.41px;" id="elo5v44hqr19o" class="animable"></path></g><g id="freepik--Car--inject-69" class="animable" style="transform-origin: 365.1px 314.794px;"><rect x="386.16" y="202.33" width="17.92" height="8.6" style="fill: rgb(224, 224, 224); transform-origin: 395.12px 206.63px;" id="elyb7v36jwuwb" class="animable"></rect><path d="M385.7,206.75c6.18.11,12.49,0,18.67.1a1.19,1.19,0,0,0,.83-.19,6.1,6.1,0,0,0,.38-2.08l.59-14.19a1.69,1.69,0,0,0-1.35-1.73,47.32,47.32,0,0,0-19.65.07,3.37,3.37,0,0,0-1.74.77,3.45,3.45,0,0,0-.55,2.78,141.66,141.66,0,0,0,2.1,14.05S384.92,206.74,385.7,206.75Z" style="fill: #00FF88; transform-origin: 394.481px 197.263px;" id="elczwwrlpkuml" class="animable"></path><path d="M404.29,206.81a83.41,83.41,0,0,1-9.24.26,83.52,83.52,0,0,1-9.25-.26,83.52,83.52,0,0,1,9.25-.26A83.41,83.41,0,0,1,404.29,206.81Z" style="fill: rgb(38, 50, 56); transform-origin: 395.045px 206.81px;" id="elbbck8ejcxz4" class="animable"></path><path d="M371.79,220s7.68-10.57,13-10.86,24.32-.14,26.34,1,34.59,13,34.59,13Z" style="fill: rgb(38, 50, 56); transform-origin: 408.755px 216.076px;" id="ela51afpj2uc" class="animable"></path><polygon points="124.19 398.1 298.24 397.13 532.88 395.23 594.15 390.55 598.64 343.43 576.97 310.81 445.75 302.23 135.56 326.14 106.02 370.75 124.19 398.1" style="fill: #00FF88; transform-origin: 352.33px 350.165px;" id="elc527xctver" class="animable"></polygon><g id="elntvkxd005x"><polygon points="124.19 398.1 298.24 397.13 532.88 395.23 594.15 390.55 598.64 343.43 576.97 310.81 445.75 302.23 135.56 326.14 106.02 370.75 124.19 398.1" style="opacity: 0.3; transform-origin: 352.33px 350.165px;" class="animable" id="elwtwhs3pwixa"></polygon></g><path d="M630.52,367.08l1.63-9.69s-9.73,4.42-9.9,4.84-1,7-.6,7.22,2.06,1.72,2.58,1.2S630.52,367.08,630.52,367.08Z" style="fill: rgb(255, 255, 255); transform-origin: 626.846px 364.074px;" id="elryg5st36uda" class="animable"></path><path d="M354.68,238.26s-.43-15.75,2.36-18.14,72.07-1.79,99.54,3.59,63.31,17.73,63.11,18.92L455.58,252Z" style="fill: #00FF88; transform-origin: 437.173px 235.392px;" id="el82tjd9fc73" class="animable"></path><path d="M103.29,387.87s-6.37-11.22-5.76-15.16-1-12.44,0-16.38S100.26,343.59,106,336c0,0-.3-19.41,23.06-29.12s58.84-13.65,76.43-16.07,18.2-1.22,34.58-9.1,61-34.52,85.14-40c0,0,24.88-4.9,39.16-5.75,15.93-1,42.55-1.33,53.66-1.09,0,0,42.3,1.89,53.48,2.92s65.71,6.05,70.63,6.25,18.35.93,18.87,1.75.92.92,0,1.84-9.54,5.54-9.54,5.54l9.54,9.43s43.16,20,48.9,25.12l5.12,4.81,5.13,34.35s7,6.87,9.53,10.76,3,3.18,3,6.87V357s-10.35,6.56-9.22,9.84,7.48,0,7.48,0l-4.1,8.92-38.24,7.79s-.61-58.13-59.35-49.52-47.78,64.38-47.78,64.38l-241.73.72s1.64-28.19-8.92-41.31-22.45-28.2-57.51-21S131.18,367.19,130,373.13,128,391.07,128,391.07Z" style="fill: #00FF88; transform-origin: 364.942px 316.963px;" id="elegkxva2ue4v" class="animable"></path><path d="M632.76,353.08a8.52,8.52,0,0,1,.24,2.31,27.39,27.39,0,0,1-.46,5.58,28.12,28.12,0,0,1-1.58,5.37,7.81,7.81,0,0,1-1.05,2.07,71.27,71.27,0,0,0,2.12-7.54A73.09,73.09,0,0,0,632.76,353.08Z" style="fill: rgb(38, 50, 56); transform-origin: 631.458px 360.745px;" id="eldzpjc0mipx7" class="animable"></path><path d="M237.11,291c29.17-17.29,56.91-34.68,88.66-44.31,16-4.86,67.27-9.2,98-6.28,0,0,26.85.61,38.59,3.47s72.83,23.82,72.83,23.82,19.51,6.48,17.13,10.13-27,6-42,7-223.07,8-223.07,8-48.54,2.32-49.81,1.85S237.11,291,237.11,291Z" style="fill: rgb(38, 50, 56); transform-origin: 394.648px 267.104px;" id="elfbztcjf1j7" class="animable"></path><path d="M243.62,291.05a1.76,1.76,0,0,1,.92-1.55c7.32-4,56.51-31,71.13-36.61,15.81-6.09,69.61-11.21,70-10.12S379,286.52,379,286.52l-133.56,6.29a1.76,1.76,0,0,1-1.85-1.76Z" style="fill: rgb(69, 90, 100); transform-origin: 314.638px 267.718px;" id="ela9trz3wel9l" class="animable"></path><path d="M129.77,311.59c-4.51.92-13.38.1-20.07,11.71-2.52,4.64-3.91,8.92-3.68,12.7,0,0,31.83-19.91,31.7-23.22S134.27,310.66,129.77,311.59Z" style="fill: rgb(255, 255, 255); transform-origin: 121.858px 323.298px;" id="ele16sdjism1s" class="animable"></path><path d="M146.93,348.37a6.67,6.67,0,0,1-1.1-.68c-.68-.47-1.67-1.16-2.87-2-2.39-1.75-5.65-4.24-9.13-7.14-1.75-1.45-3.38-2.85-4.85-4.16a33.34,33.34,0,0,1-3.78-3.63,4.8,4.8,0,0,1-1.11-3.36,2.92,2.92,0,0,1,.26-.94c.1-.2.17-.29.19-.28a5.81,5.81,0,0,0-.24,1.24,4.66,4.66,0,0,0,1.19,3.11,36.79,36.79,0,0,0,3.8,3.5c1.49,1.28,3.13,2.68,4.87,4.12,3.48,2.89,6.69,5.43,9,7.25l2.76,2.16A6.31,6.31,0,0,1,146.93,348.37Z" style="fill: rgb(38, 50, 56); transform-origin: 135.506px 337.275px;" id="el5nq8ec9hvgo" class="animable"></path><path d="M212,289.84a1.14,1.14,0,0,1-.22.11l-.65.27a23.25,23.25,0,0,0-2.4,1.25c-1,.6-2.2,1.41-3.56,2.39a47.4,47.4,0,0,1-4.78,3.12,22.72,22.72,0,0,1-6.56,2.24,75.84,75.84,0,0,1-7.88,1c-5.56.5-11.67,1-18.08,1.63a225.38,225.38,0,0,0-32.5,5.15c-2.06.48-3.88,1-5.5,1.46s-3,.9-4.1,1.27l-2.58.85-.68.21a.7.7,0,0,1-.23.06,91.93,91.93,0,0,1,13-4.2c8.16-2.19,19.72-4.09,32.54-5.32,6.41-.63,12.53-1.11,18.08-1.59a77.52,77.52,0,0,0,7.85-.9,22.79,22.79,0,0,0,6.47-2.15,48.9,48.9,0,0,0,4.78-3c1.38-.95,2.59-1.75,3.63-2.33a19.69,19.69,0,0,1,2.46-1.17l.67-.22Z" style="fill: rgb(38, 50, 56); transform-origin: 167.14px 300.345px;" id="eltet2t63vp2g" class="animable"></path><path d="M249.93,394.43s0-.08-.09-.25l-.22-.76c-.2-.67-.46-1.66-.76-2.94-.62-2.57-1.4-6.31-2.08-11S245.51,369.23,245,363s-1.12-13-1.33-20.25a89.3,89.3,0,0,1,1.44-20.25,108.79,108.79,0,0,1,4.6-15.93c1.62-4.44,3.09-8,4.1-10.4l1.2-2.79.32-.72a1.31,1.31,0,0,1,.13-.24,1.09,1.09,0,0,1-.08.26c-.07.19-.16.44-.28.74-.26.68-.63,1.63-1.1,2.83-1,2.45-2.37,6-4,10.44a113.49,113.49,0,0,0-4.47,15.9,90.76,90.76,0,0,0-1.39,20.15c.21,7.18.84,14,1.29,20.23s1,11.79,1.68,16.46,1.35,8.42,1.9,11c.28,1.29.51,2.29.67,3,.07.32.12.57.17.78A1.27,1.27,0,0,1,249.93,394.43Z" style="fill: rgb(38, 50, 56); transform-origin: 249.524px 343.425px;" id="elv2gi419k8ha" class="animable"></path><path d="M243.86,377.57l.58-.07,1.69-.13,6.52-.48,24-1.63c20.24-1.34,48.2-3.14,79.1-5,15.45-.91,30.17-1.75,43.57-2.39,3.35-.17,6.62-.31,9.79-.42,1.59-.08,3.16-.11,4.7-.13a24.8,24.8,0,0,1,4.57.18,39.09,39.09,0,0,1,8.35,2.26c2.6,1,5,2.09,7.31,3.21a171.79,171.79,0,0,1,20.59,12.36c2.33,1.62,4.12,2.92,5.31,3.81l1.35,1c.3.23.45.37.45.37l-.48-.33-1.38-1c-1.22-.86-3-2.13-5.36-3.72a180.43,180.43,0,0,0-20.64-12.2c-2.28-1.11-4.7-2.2-7.29-3.16a38.21,38.21,0,0,0-8.27-2.21,24.07,24.07,0,0,0-4.51-.16c-1.53,0-3.1.06-4.68.13-3.17.13-6.44.27-9.79.44-13.39.67-28.11,1.53-43.56,2.44l-79.1,4.84-24,1.47-6.52.37-1.7.09Z" style="fill: rgb(38, 50, 56); transform-origin: 352.8px 378.898px;" id="elwmmhd0jkvrq" class="animable"></path><path d="M398.88,242.63v44.11s123.84-4.4,129.74-5.55c9-1.76,14.52-3.36,13.3-6.23-2.2-5.18-72.78-26.58-87.79-29.89C438.42,241.6,398.88,242.63,398.88,242.63Z" style="fill: rgb(69, 90, 100); transform-origin: 470.484px 264.614px;" id="elgryav8qbjtb" class="animable"></path><path d="M614.43,291.68S585.71,288,586,295.62c0,0,.84,2.26,5.63,3.94s11.9,4.63,15,7.17,7.16,7.76,11.66,7.48C618.28,314.21,622.87,296.47,614.43,291.68Z" style="fill: rgb(255, 255, 255); transform-origin: 602.762px 302.506px;" id="elxt73wczovrp" class="animable"></path><path d="M518.8,242.63l-.43,0-1.25-.11L512.3,242l-17.72-1.91c-15-1.6-35.62-3.89-58.53-5.26-11.46-.65-22.39-.92-32.33-.9-5,.08-9.7.1-14.11.34-2.21.1-4.35.15-6.4.29l-5.88.42c-3.76.21-7.13.63-10.11.91-1.48.16-2.87.28-4.14.43l-3.46.47-4.81.63-1.25.15a2,2,0,0,1-.43,0,2.39,2.39,0,0,1,.42-.09l1.25-.2,4.79-.73,3.46-.51c1.27-.17,2.66-.31,4.14-.48,3-.31,6.35-.76,10.11-1l5.89-.45c2.05-.15,4.19-.21,6.4-.32,4.42-.26,9.15-.3,14.12-.39,10,0,20.9.21,32.37.86,22.93,1.37,43.59,3.72,58.54,5.42l17.7,2.07,4.81.59,1.25.16A2,2,0,0,1,518.8,242.63Z" style="fill: rgb(38, 50, 56); transform-origin: 435.965px 238.015px;" id="elqopzk6dd1ea" class="animable"></path><path d="M536.23,248.6a19.16,19.16,0,0,0,5,5.24c2.77,1.75,20.26,8.89,20.26,8.89L553,253.26s8.6-4.52,8.46-6S536.23,248.6,536.23,248.6Z" style="fill: rgb(38, 50, 56); transform-origin: 548.86px 254.78px;" id="eli9kgy2ge8sk" class="animable"></path><path d="M100.57,385.31s9.8,14.36,16.86,16.64a92.19,92.19,0,0,0,13.22,3.19l-1.59-19.83Z" style="fill: rgb(38, 50, 56); transform-origin: 115.61px 395.225px;" id="elxd33midr74r" class="animable"></path><path d="M480.88,386.79l-242.49,1.37h1.14v15.5s132.18-3.88,153.83-4.56,89.57,1.37,89.57,1.37Z" style="fill: rgb(38, 50, 56); transform-origin: 360.66px 395.225px;" id="elzkwouq44foa" class="animable"></path><path d="M585.94,396l3.19-13,38.06-7.29s1.37.91-1.37,3.87-28.48,17.32-39.88,17.55" style="fill: rgb(38, 50, 56); transform-origin: 606.736px 386.42px;" id="el3eycqcpv6bn" class="animable"></path><path d="M392.05,398.1s0-.07,0-.2v-.59c0-.54,0-1.31,0-2.3,0-2.05,0-5-.06-8.82h0c-.75-6.84-1.74-16.5-2.71-28.05-.47-5.77-.95-12-1.28-18.6-.13-3.3-.3-6.69-.23-10.16s.3-7,.46-10.55c1-21.91,2-41.74,2.64-56.12.37-7.16.66-13,.87-17,.11-2,.2-3.54.26-4.62,0-.51.06-.91.08-1.21a2.38,2.38,0,0,1,0-.4,2.56,2.56,0,0,1,0,.41l0,1.2c0,1.09-.09,2.64-.16,4.63-.17,4-.4,9.84-.7,17-.64,14.38-1.52,34.21-2.49,56.11-.16,3.58-.35,7.1-.47,10.55s.1,6.83.23,10.12c.31,6.59.77,12.83,1.22,18.6.93,11.54,1.85,21.21,2.53,28.05h0c0,3.79-.05,6.77-.06,8.82,0,1,0,1.76,0,2.3,0,.25,0,.44,0,.59S392.06,398.1,392.05,398.1Z" style="fill: rgb(38, 50, 56); transform-origin: 389.997px 318.79px;" id="el15chf8iaz6g" class="animable"></path><path d="M519.39,337a.92.92,0,0,1,0-.27c0-.21,0-.47.06-.8.06-.73.15-1.75.26-3,.25-2.68.61-6.49,1.06-11.18s1-10.35,1.63-16.58c.15-1.56.34-3.17.47-4.78a9.09,9.09,0,0,0-1.78-4.47,51.65,51.65,0,0,0-6.88-7.91c-1.18-1.16-2.39-2.27-3.55-3.27h0v0c-9-9.83-17-18.59-22.84-24.93-2.86-3.14-5.16-5.68-6.78-7.47l-1.82-2c-.18-.22-.33-.4-.46-.54s-.15-.19-.14-.19.07.05.18.16l.5.5,1.88,2,6.89,7.37,23,24.81,0,0c1.17,1,2.38,2.13,3.58,3.29a52,52,0,0,1,6.94,8,9.41,9.41,0,0,1,1.84,4.76c-.13,1.66-.32,3.24-.48,4.8-.66,6.23-1.25,11.85-1.75,16.58s-.93,8.49-1.22,11.17q-.23,1.94-.36,3l-.1.79A1,1,0,0,1,519.39,337Z" style="fill: rgb(38, 50, 56); transform-origin: 501.024px 293.305px;" id="elqms2lzlnpx" class="animable"></path><path d="M571.7,306.79a20.07,20.07,0,0,0-.4-2.41,10,10,0,0,0-3.64-5.36,9.7,9.7,0,0,0-4.12-1.81,9.85,9.85,0,0,0-5.11.45A8.87,8.87,0,0,0,556,299a9.11,9.11,0,0,0-2.05,2.06,9.69,9.69,0,0,0,0,11.47,9.16,9.16,0,0,0,2.05,2.07,9.43,9.43,0,0,0,2.45,1.33,9.77,9.77,0,0,0,9.23-1.36,10,10,0,0,0,3.64-5.37,20.5,20.5,0,0,0,.4-2.4,7.58,7.58,0,0,1-.21,2.45,9.9,9.9,0,0,1-3.61,5.61,10,10,0,0,1-4.26,1.93,10.2,10.2,0,0,1-5.35-.41,9.81,9.81,0,0,1-2.59-1.38,9.67,9.67,0,0,1-2.16-2.17,10.11,10.11,0,0,1,0-12.07,9.42,9.42,0,0,1,2.16-2.16,9.53,9.53,0,0,1,2.59-1.38,10.08,10.08,0,0,1,9.61,1.51,9.93,9.93,0,0,1,3.61,5.61A7.64,7.64,0,0,1,571.7,306.79Z" style="fill: rgb(38, 50, 56); transform-origin: 561.642px 306.795px;" id="el45flrguvgf" class="animable"></path><path d="M619.82,326.8a4.68,4.68,0,0,1-.62.08l-1.78.15-6.56.45-21.64,1.41-6.16.44c-1,.08-2,.15-2.93.25a14.83,14.83,0,0,0-2.74.39,21.59,21.59,0,0,0-4.58,2.31c-1.38.85-2.64,1.7-3.78,2.49-2.28,1.58-4.08,2.92-5.33,3.84l-1.44,1.06a3,3,0,0,1-.52.35,2.39,2.39,0,0,1,.46-.43q.46-.4,1.38-1.14c1.21-1,3-2.36,5.24-4,1.12-.82,2.38-1.68,3.76-2.56a21.63,21.63,0,0,1,4.68-2.4,15.75,15.75,0,0,1,2.82-.43c1-.1,1.94-.17,2.94-.26l6.16-.45c8.46-.57,16.11-1,21.66-1.26l6.56-.28,1.79-.05A2.36,2.36,0,0,1,619.82,326.8Z" style="fill: rgb(38, 50, 56); transform-origin: 590.78px 333.387px;" id="el2t719d51v2x" class="animable"></path><path d="M454.13,223.16h-.25l-.7-.06-2.7-.28-9.92-1c-8.38-.85-20-1.86-32.82-2.48-6.42-.3-12.54-.47-18.1-.54s-10.59,0-14.8.08c-2.1,0-4,.1-5.68.16s-3.11.11-4.29.16l-2.71.11-.7,0h-.25a.68.68,0,0,1,.24,0l.71-.06,2.7-.21c1.18-.09,2.62-.18,4.29-.25s3.58-.19,5.68-.24c4.22-.16,9.24-.21,14.81-.19s11.7.2,18.13.5c12.85.62,24.45,1.69,32.83,2.63,4.18.46,7.57.88,9.91,1.2l2.68.38.7.11Z" style="fill: rgb(38, 50, 56); transform-origin: 407.67px 220.768px;" id="elk4691o0r71d" class="animable"></path><path d="M407.45,209.52a24.82,24.82,0,0,1-3.39,0c-2.1-.07-5-.13-8.19-.15l-8.2,0a23.35,23.35,0,0,1-3.4-.13,22.15,22.15,0,0,1,3.4-.24c2.09-.08,5-.14,8.2-.12s6.11.14,8.2.3c1.05.08,1.9.16,2.48.23A3.43,3.43,0,0,1,407.45,209.52Z" style="fill: rgb(38, 50, 56); transform-origin: 395.86px 209.227px;" id="elklqf83gzj8" class="animable"></path><g id="elr63fvrryto"><circle cx="536.12" cy="387.89" r="51.55" style="fill: rgb(38, 50, 56); transform-origin: 536.12px 387.89px; transform: rotate(-2.76deg);" class="animable" id="el1sq5zhpht2i"></circle></g><path d="M484.58,387s0,.09,0,.13a51.56,51.56,0,0,0,103.1,1.49v-.14Z" style="fill: rgb(38, 50, 56); transform-origin: 536.13px 412.872px;" id="elchrd8i2f16" class="animable"></path><path d="M499.93,387.37a36.19,36.19,0,1,0,36.71-35.67A36.18,36.18,0,0,0,499.93,387.37Z" style="fill: rgb(250, 250, 250); transform-origin: 536.116px 387.886px;" id="eltqfmcb3fywl" class="animable"></path><path d="M536.64,351.7a36.2,36.2,0,0,0-36.71,35.67l72.38,1.05A36.2,36.2,0,0,0,536.64,351.7Z" style="fill: rgb(224, 224, 224); transform-origin: 536.122px 370.058px;" id="elzqcz01udy2" class="animable"></path><path d="M514.08,387.58a22,22,0,1,0,22.36-21.73A22,22,0,0,0,514.08,387.58Z" style="fill: rgb(38, 50, 56); transform-origin: 536.078px 387.847px;" id="elhenwohsemmi" class="animable"></path><g id="elch86md939wb"><circle cx="184.52" cy="389.67" r="51.55" style="fill: rgb(38, 50, 56); transform-origin: 184.52px 389.67px; transform: rotate(-89.77deg);" class="animable" id="elpbwh0ltv2v"></circle></g><path d="M133,388.79s0,.09,0,.14a51.56,51.56,0,1,0,103.1,1.48.56.56,0,0,1,0-.13Z" style="fill: rgb(38, 50, 56); transform-origin: 184.54px 415.358px;" id="el1vy2r72uqq2" class="animable"></path><path d="M148.33,389.15A36.19,36.19,0,1,0,185,353.48,36.19,36.19,0,0,0,148.33,389.15Z" style="fill: rgb(250, 250, 250); transform-origin: 184.516px 389.667px;" id="elay9kxfwp08k" class="animable"></path><path d="M185,353.48a36.2,36.2,0,0,0-36.71,35.67l72.38,1A36.2,36.2,0,0,0,185,353.48Z" style="fill: rgb(224, 224, 224); transform-origin: 184.482px 371.813px;" id="ellidcot12yiq" class="animable"></path><path d="M162.48,389.35a22,22,0,1,0,22.36-21.72A22,22,0,0,0,162.48,389.35Z" style="fill: rgb(38, 50, 56); transform-origin: 184.478px 389.627px;" id="el9ylzb1h6hc" class="animable"></path><path d="M352.44,311.5s-.2,0-.55-.11a2.85,2.85,0,0,1-1.35-.89,3.5,3.5,0,0,1-.75-2.6,3,3,0,0,1,2-2.62,7.88,7.88,0,0,1,1.91-.08h2.12l4.68,0,10.73,0a2.48,2.48,0,0,1,2.16,1.39,3.43,3.43,0,0,1,.19,2.8,2.73,2.73,0,0,1-1.81,1.73,5.51,5.51,0,0,1-1.23.07h-1.26l-8.75.06-5.91.09-1.6.05a3.48,3.48,0,0,0-.56.05,2.05,2.05,0,0,0,.56.06l1.6.05,5.91.09,8.75.06h1.26a6,6,0,0,0,1.32-.07,3.22,3.22,0,0,0,2.14-2,4.11,4.11,0,0,0-.21-3.31,3,3,0,0,0-2.56-1.65l-10.73,0-4.68,0h-2.12a7.79,7.79,0,0,0-2,.14,3.33,3.33,0,0,0-2.16,2.95,3.68,3.68,0,0,0,.89,2.79,2.61,2.61,0,0,0,1.45.84A1.56,1.56,0,0,0,352.44,311.5Z" style="fill: rgb(38, 50, 56); transform-origin: 361.887px 308.183px;" id="elzq8853vjxx8" class="animable"></path><path d="M486.42,308.47a4.46,4.46,0,0,0-.55-.12,2.72,2.72,0,0,1-1.34-.89,3.48,3.48,0,0,1-.76-2.6,3,3,0,0,1,2-2.62,7.85,7.85,0,0,1,1.91-.08h2.12l4.68,0,10.72,0a2.53,2.53,0,0,1,2.17,1.39,3.49,3.49,0,0,1,.18,2.81,2.71,2.71,0,0,1-1.81,1.72,5.47,5.47,0,0,1-1.23.07h-1.25l-8.76,0-5.9.09-1.61.05a2.05,2.05,0,0,0-.56.06,2.44,2.44,0,0,0,.56,0l1.61.05,5.9.09,8.76.06h1.25a5.47,5.47,0,0,0,1.32-.07,3.18,3.18,0,0,0,2.14-2,4,4,0,0,0-.21-3.31,3,3,0,0,0-2.56-1.65l-10.72,0-4.68,0-2.12,0a7.76,7.76,0,0,0-2,.13,3.34,3.34,0,0,0-2.17,2.95,3.72,3.72,0,0,0,.89,2.79,2.71,2.71,0,0,0,1.45.85A1.54,1.54,0,0,0,486.42,308.47Z" style="fill: rgb(38, 50, 56); transform-origin: 495.863px 305.033px;" id="elq8pcavxebuc" class="animable"></path><path d="M320.07,279.2c-.08-.12,7.83-5,17.65-10.92s17.86-10.61,17.93-10.48-7.83,5-17.66,10.92S320.14,279.33,320.07,279.2Z" style="fill: rgb(38, 50, 56); transform-origin: 337.86px 268.5px;" id="elxm9om9qgol" class="animable"></path><path d="M325.87,282.17c-.08-.13,4.73-3.32,10.73-7.13s10.93-6.8,11-6.68-4.73,3.31-10.73,7.12S326,282.29,325.87,282.17Z" style="fill: rgb(38, 50, 56); transform-origin: 336.735px 275.265px;" id="el5s7711nopar" class="animable"></path><path d="M450.08,253.56c.09.11-7.23,6-16.34,13.08s-16.57,12.79-16.66,12.68,7.23-6,16.34-13.09S450,253.45,450.08,253.56Z" style="fill: rgb(38, 50, 56); transform-origin: 433.58px 266.44px;" id="elocmj2m0938" class="animable"></path><path d="M447.36,264.25A17.66,17.66,0,0,1,445,266.2c-1.53,1.14-3.69,2.65-6.14,4.22s-4.72,2.91-6.39,3.83a16.93,16.93,0,0,1-2.77,1.36,19.67,19.67,0,0,1,2.58-1.68c1.62-1,3.86-2.38,6.3-3.95s4.62-3,6.2-4.08A20.24,20.24,0,0,1,447.36,264.25Z" style="fill: rgb(38, 50, 56); transform-origin: 438.53px 269.93px;" id="el0v5q8xaexghe" class="animable"></path><path d="M116.79,315c0,.06-.94,1-2.47,2.63a38.61,38.61,0,0,0-5.32,6.79,21.71,21.71,0,0,0-2.91,8c-.3,2.19-.11,3.57-.21,3.57a3,3,0,0,1-.17-1,13.68,13.68,0,0,1,0-2.65,20.32,20.32,0,0,1,2.83-8.27,34,34,0,0,1,5.5-6.78c.81-.78,1.48-1.38,2-1.79A3.59,3.59,0,0,1,116.79,315Z" style="fill: rgb(38, 50, 56); transform-origin: 111.218px 325.495px;" id="eluazk83uqelr" class="animable"></path><path d="M618.17,315a3.66,3.66,0,0,1,.05-1.05c.07-.66.19-1.63.35-2.82s.37-2.63.58-4.16a35.18,35.18,0,0,0,.4-5.1,14.14,14.14,0,0,0-.83-5,10.39,10.39,0,0,0-2.14-3.49,9.6,9.6,0,0,0-3.14-2.13s.1,0,.27,0a4.7,4.7,0,0,1,.75.24,7.29,7.29,0,0,1,2.38,1.6,10.34,10.34,0,0,1,2.33,3.57,14.08,14.08,0,0,1,.9,5.14,32.9,32.9,0,0,1-.44,5.17c-.26,1.53-.49,2.92-.69,4.15s-.38,2.14-.52,2.79A4.76,4.76,0,0,1,618.17,315Z" style="fill: rgb(38, 50, 56); transform-origin: 616.756px 303.125px;" id="eli3ge43u49lb" class="animable"></path><g id="el0itv6u2voc3q"><path d="M253.15,289.93s97.75-44.08,99.18-44.27,26.7-2.79,26.7-2.79l-97.75,48.69Z" style="fill: rgb(255, 255, 255); opacity: 0.2; transform-origin: 316.09px 267.215px;" class="animable" id="el0n1n17fu5xse"></path></g><g id="elvl0qaj8el2"><path d="M398.88,287.29s76.66-35.79,78.08-36,15,4.54,15,4.54L427,285.62Z" style="fill: rgb(255, 255, 255); opacity: 0.2; transform-origin: 445.42px 269.287px;" class="animable" id="el34wjrk5zy9w"></path></g><path d="M245.94,283.61a26.58,26.58,0,0,1,6.51-5.25c4.88-3.16,10-6.39,15.75-7.15l1.65.16c3.81-.21,7.5,2,9.72,5.13a20,20,0,0,1,3.26,10.82,16,16,0,0,1-.77,6.15,8.1,8.1,0,0,1-4,4.61,12.94,12.94,0,0,1-5.33.82,139.52,139.52,0,0,1-17.23-.5,20.65,20.65,0,0,1-7-1.74,8.69,8.69,0,0,1-4.69-5.24C243.12,288.72,244.18,285.79,245.94,283.61Z" style="fill: #00FF88; transform-origin: 263.233px 285.093px;" id="eldq6b1vgnyo4" class="animable"></path><path d="M245.94,283.61s-.22.31-.61.92a11.13,11.13,0,0,0-1.28,2.85,7.28,7.28,0,0,0,.23,4.81,9,9,0,0,0,4.58,4.41,23.23,23.23,0,0,0,7.73,1.69c2.86.27,5.94.39,9.18.41,1.62,0,3.28,0,5,0a44.36,44.36,0,0,0,5.15-.22,7.81,7.81,0,0,0,2.45-.79,7.38,7.38,0,0,0,2-1.67,10,10,0,0,0,2.07-4.92,24,24,0,0,0-.17-7.08,18.29,18.29,0,0,0-2.24-6.38c-2.2-3.81-6.29-6.23-10.13-6h0l-1.65-.17h.05a28.58,28.58,0,0,0-9.86,3.51c-2.75,1.52-5,3-7,4.24a29.84,29.84,0,0,0-4.18,3.12c-.44.41-.75.75-1,1a2.4,2.4,0,0,1-.33.34,2.33,2.33,0,0,1,.28-.38c.2-.24.5-.6.93-1a26.3,26.3,0,0,1,4.13-3.23c1.89-1.24,4.16-2.79,6.92-4.34a28.65,28.65,0,0,1,10-3.64h.05l1.65.16h0c4-.24,8.29,2.28,10.58,6.21a18.83,18.83,0,0,1,2.32,6.55,24.39,24.39,0,0,1,.17,7.25,10.44,10.44,0,0,1-2.18,5.17,7.56,7.56,0,0,1-2.15,1.79A8,8,0,0,1,276,299a42.19,42.19,0,0,1-5.22.21c-1.7,0-3.36,0-5,0-3.24,0-6.33-.17-9.21-.46a23.74,23.74,0,0,1-7.85-1.78A9.33,9.33,0,0,1,244,292.3a7.4,7.4,0,0,1-.15-5,10.28,10.28,0,0,1,1.39-2.85,7.81,7.81,0,0,1,.5-.65A1.69,1.69,0,0,1,245.94,283.61Z" style="fill: rgb(38, 50, 56); transform-origin: 263.32px 285.155px;" id="elixsief9y1nl" class="animable"></path></g><defs>     <filter id="active" height="200%">         <feMorphology in="SourceAlpha" result="DILATED" operator="dilate" radius="2"></feMorphology>                <feFlood flood-color="#32DFEC" flood-opacity="1" result="PINK"></feFlood>        <feComposite in="PINK" in2="DILATED" operator="in" result="OUTLINE"></feComposite>        <feMerge>            <feMergeNode in="OUTLINE"></feMergeNode>            <feMergeNode in="SourceGraphic"></feMergeNode>        </feMerge>    </filter>    <filter id="hover" height="200%">        <feMorphology in="SourceAlpha" result="DILATED" operator="dilate" radius="2"></feMorphology>                <feFlood flood-color="#ff0000" flood-opacity="0.5" result="PINK"></feFlood>        <feComposite in="PINK" in2="DILATED" operator="in" result="OUTLINE"></feComposite>        <feMerge>            <feMergeNode in="OUTLINE"></feMergeNode>            <feMergeNode in="SourceGraphic"></feMergeNode>        </feMerge>            <feColorMatrix type="matrix" values="0   0   0   0   0                0   1   0   0   0                0   0   0   0   0                0   0   0   1   0 "></feColorMatrix>    </filter></defs></svg>